<?xml version="1.0" encoding="UTF-8" standalone="no"?>
<!-- Created with Inkscape (http://www.inkscape.org/) -->

<svg
   version="1.1"
   id="svg1107"
   width="500"
   height="500"
   viewBox="0 0 500.00001 499.99999"
   sodipodi:docname="logo.svg"
   inkscape:version="1.3 (0e150ed6c4, 2023-07-21)"
   xmlns:inkscape="http://www.inkscape.org/namespaces/inkscape"
   xmlns:sodipodi="http://sodipodi.sourceforge.net/DTD/sodipodi-0.dtd"
   xmlns="http://www.w3.org/2000/svg"
   xmlns:svg="http://www.w3.org/2000/svg">
  <defs
     id="defs1111" />
  <sodipodi:namedview
     id="namedview1109"
     pagecolor="#ffffff"
     bordercolor="#000000"
     borderopacity="0.25"
     inkscape:showpageshadow="2"
     inkscape:pageopacity="0.0"
     inkscape:pagecheckerboard="0"
     inkscape:deskcolor="#d1d1d1"
     showgrid="false"
     inkscape:zoom="0.77024997"
     inkscape:cx="861.40866"
     inkscape:cy="392.72965"
     inkscape:window-width="2514"
     inkscape:window-height="1341"
     inkscape:window-x="20"
     inkscape:window-y="73"
     inkscape:window-maximized="1"
     inkscape:current-layer="g1115">
    <inkscape:page
       x="0"
       y="0"
       id="page1113"
       width="500"
       height="500"
       margin="0"
       bleed="0" />
  </sodipodi:namedview>
  <g
     id="g1115"
     inkscape:groupmode="layer"
     inkscape:label="Page 1"
     transform="matrix(1.3333333,0,0,-1.3333333,0,2666.6667)">
    <g
       id="g1">
      <path
         d="m 187.5,1625.0001 c -50.08636,0 -97.16822,19.4983 -132.584738,54.9143 -35.416519,35.4158 -54.915272916261,82.5036 -54.915272916261,132.5823 0,50.0855 19.498753916261,97.1665 54.915272916261,132.5823 35.416518,35.4159 82.498378,54.9211 132.584738,54.9211 50.08637,0 97.16823,-19.5052 132.58474,-54.9211 35.41653,-35.4158 54.91527,-82.4968 54.91527,-132.5823 0,-50.0787 -19.49874,-97.1665 -54.91527,-132.5823 -35.41651,-35.416 -82.49837,-54.9143 -132.58474,-54.9143"
         style="fill:#05384b;fill-opacity:1;fill-rule:nonzero;stroke:none;stroke-width:0.0678211"
         id="path1431" />
      <path
         d="m 361.68661,1812.4967 c 0,-7.9486 -0.52901,-15.775 -1.56669,-23.4388 -3.27578,-24.3476 -11.58394,-47.115 -23.84613,-67.1966 -25.23647,-41.3366 -67.21813,-71.3404 -116.51098,-80.5707 h -0.006 c -6.11753,-1.1462 -12.33,-1.9668 -18.65099,-2.4552 h -0.006 c -2.27202,-0.1763 -4.55084,-0.3119 -6.84999,-0.3933 -1.42426,-0.055 -2.84174,-0.095 -4.27277,-0.1086 -0.82065,-0.014 -1.64808,-0.02 -2.4755,-0.02 -1.25471,0 -2.51619,0.014 -3.77089,0.034 -1.75658,0.041 -3.48604,0.1085 -5.22228,0.1968 h -0.006 c -2.33307,0.1152 -4.65258,0.278 -6.96529,0.495 -6.57872,0.59 -13.04891,1.5599 -19.39703,2.8688 h -0.006 c -46.88518,9.6644 -86.879669,38.1762 -111.729559,77.2611 -13.198113,20.7532 -22.130238,44.4971 -25.534889,69.9841 -1.030891,7.6366 -1.553118,15.4291 -1.553118,23.3438 0,13.4556 1.519207,26.5517 4.415196,39.1257 8.443808,36.8197 28.573303,69.1905 56.264924,92.9955 19.437714,16.7177 42.612406,29.2238 68.093036,36.0805 14.47995,3.9065 29.70593,5.9885 45.41344,5.9885 15.26669,0 30.06539,-1.96 44.17232,-5.6562 25.2229,-6.5854 48.22126,-18.6981 67.61828,-34.9547 27.99003,-23.4455 48.49934,-55.5246 57.43825,-92.141 3.24187,-13.2792 4.95776,-27.1553 4.95776,-41.4383"
         style="fill:#f2d041;fill-opacity:1;fill-rule:nonzero;stroke:none;stroke-width:0.0678211"
         id="path1433" />
      <path
         d="m 194.24827,1638.4421 105.04232,307.6339 c 27.99004,-23.4455 48.49934,-55.5247 57.43825,-92.141 3.24188,-13.2793 4.95777,-27.1553 4.95777,-41.4383 0,-7.9486 -0.52901,-15.775 -1.56669,-23.4388 -3.27578,-24.3476 -11.58394,-47.115 -23.84613,-67.1966 v 0 l -116.51098,-80.5707 v 0 h -0.006 c -6.11753,-1.1462 -12.33,-1.9668 -18.65099,-2.4552 h -0.006 c -2.27202,-0.1763 -4.55084,-0.3119 -6.84999,-0.3933"
         style="fill:#e6aa11;fill-opacity:1;fill-rule:nonzero;stroke:none;stroke-width:0.0678211"
         id="path1435" />
      <path
         d="m 361.68661,1812.4967 c 0,-7.9486 -0.52901,-15.775 -1.56669,-23.4388 -3.27578,-24.3476 -11.58394,-47.115 -23.84613,-67.1966 -25.23647,-41.3366 -67.21813,-71.3404 -116.51098,-80.5707 h -0.006 c -6.11753,-1.1462 -12.33,-1.9668 -18.65099,-2.4552 l 155.62344,215.0996 c 3.24188,-13.2793 4.95777,-27.1553 4.95777,-41.4383"
         style="fill:#da8b04;fill-opacity:1;fill-rule:nonzero;stroke:none;stroke-width:0.0678211"
         id="path1437" />
      <path
         d="m 178.50006,1638.5439 c -2.33307,0.1152 -4.65258,0.278 -6.96529,0.495 -6.57872,0.59 -13.04891,1.5599 -19.39703,2.8688 h -0.006 v 0 l -111.72956,77.2611 v 0 c -13.198113,20.7532 -22.130238,44.4971 -25.53489,69.9841 -1.03089,7.6366 -1.553117,15.4291 -1.553117,23.3438 0,13.4555 1.519207,26.5517 4.415196,39.1257 8.443808,36.8197 28.573303,69.1905 56.264924,92.9954 L 178.50041,1638.5439"
         style="fill:#e6aa11;fill-opacity:1;fill-rule:nonzero;stroke:none;stroke-width:0.0678211"
         id="path1439" />
      <path
         d="M 17.728596,1851.6224 171.53477,1639.0389 c -6.57872,0.59 -13.04891,1.5599 -19.39703,2.8688 h -0.006 c -46.88518,9.6644 -86.87967,38.1762 -111.72956,77.2611 -13.198113,20.7532 -22.130238,44.4971 -25.53489,69.9841 -1.03089,7.6366 -1.553117,15.4291 -1.553117,23.3438 0,13.4555 1.519207,26.5517 4.415196,39.1257"
         style="fill:#da8b04;fill-opacity:1;fill-rule:nonzero;stroke:none;stroke-width:0.0678211"
         id="path1441" />
      <path
         d="m 187.5,1638.3133 c -1.2547,0 -2.51619,0.014 -3.77089,0.034 v 0 l -41.64256,342.3513 c 14.47996,3.9065 29.70593,5.9885 45.41345,5.9885 15.26668,0 30.06539,-1.9599 44.17231,-5.6562 l -41.69681,-342.697 v 0 c -0.82065,-0.014 -1.64807,-0.02 -2.4755,-0.02"
         style="fill:#f8e359;fill-opacity:1;fill-rule:nonzero;stroke:none;stroke-width:0.0678211"
         id="path1443" />
      <path
         d="M 362.33091,1787.2946 C 350.74696,1701.0879 276.88229,1634.617 187.5,1634.617 c -89.416197,0 -159.819445,50.1061 -171.376271,136.3602 89.447131,66.9621 260.664561,55.1537 343.020031,-4.9732"
         style="fill:#05384b;fill-opacity:1;fill-rule:nonzero;stroke:none;stroke-width:0.0678211"
         id="path1445"
         sodipodi:nodetypes="cscc" />
      <path
         d="m 208.79515,1875.2752 -8.58258,-7.3774 -1.21715,-7.367 -6.16912,22.0803 -1.28858,9.561 c 0.34642,-0.3658 0.52982,-0.5622 0.52982,-0.5622 0,0 6.96177,-2.3096 13.90344,0.019 0.23727,0.075 0.51532,0.082 0.84775,0.011 l -1.71844,-7.7815 3.69486,-8.5809"
         style="fill:#14758c;fill-opacity:1;fill-rule:nonzero;stroke:none;stroke-width:0.0678211"
         id="path1447" />
      <path
         d="m 140.12908,1896.6157 57.3852,-45.7877 0.12352,-6.1892 -65.11172,51.952 7.603,0.025"
         style="fill:#31606e;fill-opacity:1;fill-rule:nonzero;stroke:none;stroke-width:0.201348"
         id="path16" />
      <path
         d="m 190.45432,1896.7835 c 2.25809,-9.2184 3.93046,-18.5384 5.29677,-27.9092 l -34.85486,27.8111 29.55809,0.098"
         style="fill:#31606e;fill-opacity:1;fill-rule:nonzero;stroke:none;stroke-width:0.201348"
         id="path18" />
      <path
         d="m 127.75213,1896.574 -3.36871,-4.2209 69.54847,-55.4915 3.76658,4.7229 0.36403,-18.1791 -14.21334,-0.016 0.005,0.7571 -38.64513,-0.055 -0.0476,33.6147 -23.14116,-0.033 -0.055,38.8821 5.78883,0.018"
         style="fill:#31606e;fill-opacity:1;fill-rule:nonzero;stroke:none;stroke-width:0.201348"
         id="path20" />
      <path
         d="m 160.89623,1896.6854 34.85486,-27.8111 c 0.59979,-4.1066 1.15735,-8.2214 1.65041,-12.3483 l 0.11278,-5.698 -57.3852,45.7877 20.76715,0.07"
         style="fill:#55aea4;fill-opacity:1;fill-rule:nonzero;stroke:none;stroke-width:0.201348"
         id="path22" />
      <path
         d="m 124.38342,1892.3531 3.36871,4.2209 4.77395,0.017 65.11171,-51.952 0.0606,-3.0543 -3.76659,-4.7229 -69.54846,55.4914"
         style="fill:#55aea4;fill-opacity:1;fill-rule:nonzero;stroke:none;stroke-width:0.201348"
         id="path24" />
      <path
         d="m 304.9,1818.4444 -0.48017,4.9303 c -0.0736,0.771 -0.48928,1.4027 -1.1683,1.7762 -0.67909,0.3755 -1.4322,0.3886 -2.12634,0.041 l -12.80889,-6.433 16.5837,-0.3147"
         style="fill:#07506b;fill-opacity:1;fill-rule:evenodd;stroke:none;stroke-width:0.201348"
         id="path26" />
      <path
         d="m 301.73281,1824.0856 c -0.6222,-9e-4 -1.12682,-0.5089 -1.12594,-1.1311 8.9e-4,-0.6242 0.50694,-1.1268 1.12914,-1.1259 0.62416,8e-4 1.12885,0.5049 1.12797,1.1291 -8.8e-4,0.6222 -0.50701,1.1289 -1.13117,1.1279"
         style="fill:#ffffff;fill-opacity:1;fill-rule:evenodd;stroke:none;stroke-width:0.201348"
         id="path28" />
      <path
         d="m 314.63862,1816.0863 c 0.006,-4.2041 -0.74054,-20.2364 -1.78192,-21.3594 -1.57824,-1.7036 -22.22511,-2.8523 -29.9287,-2.8632 -10.60311,-0.015 -9.55246,28.7328 -1.00916,28.7449 5.10419,0.011 32.29767,-2.1893 32.71978,-4.5223"
         style="fill:#07516c;fill-opacity:1;fill-rule:evenodd;stroke:none;stroke-width:0.201348"
         id="path30" />
      <path
         d="m 263.92851,1853.1006 4.95321,0.011 -0.0249,17.66 -4.95322,-0.011 0.025,-17.6601"
         style="fill:#3a3a3c;fill-opacity:1;fill-rule:evenodd;stroke:none;stroke-width:0.201348"
         id="path32" />
      <path
         d="m 195.94156,1828.1502 -32.2079,-0.046 0.01,-7.0612 32.2079,0.046 -0.01,7.0613"
         style="fill:#3a3a3c;fill-opacity:1;fill-rule:evenodd;stroke:none;stroke-width:0.201348"
         id="path34" />
      <path
         d="m 100.70966,1847.54 c -6.423051,-0.011 -11.636309,3.0581 -11.641672,6.8494 -0.0054,3.7895 5.199193,6.8714 11.622242,6.8805 6.42103,0.011 11.63435,-3.0582 11.63972,-6.8475 0.005,-3.7913 -5.19927,-6.8733 -11.62029,-6.8824"
         style="fill:#0b7ba5;fill-opacity:1;fill-rule:evenodd;stroke:none;stroke-width:0.201348"
         id="path36" />
      <path
         d="m 89.131381,1853.6848 c -0.04035,0.2316 -0.06306,0.4671 -0.06339,0.7046 -0.0042,2.9539 3.157429,5.4751 7.591797,6.4499 -1.468873,-3.5035 -4.211565,-6.1571 -7.528404,-7.1545"
         style="fill:#f37016;fill-opacity:1;fill-rule:evenodd;stroke:none;stroke-width:0.201348"
         id="path38" />
      <path
         d="m 239.71719,1779.7681 -113.56138,-0.1606 -0.0262,18.5277 113.56137,0.1606 z"
         style="fill:#3a3a3c;fill-opacity:1;fill-rule:evenodd;stroke:none;stroke-width:0.201348"
         id="path40" />
      <path
         d="m 145.71409,1895.4981 0.0656,-46.3479 h 3.68271 l -0.0655,46.3479 46.18766,0.065 -0.66487,3.124 -70.39051,1.7307 0.007,-4.9551 21.178,0.03"
         style="fill:#3a3a3c;fill-opacity:1;fill-rule:evenodd;stroke:none;stroke-width:0.201348"
         id="path42" />
      <path
         d="m 119.37492,1895.8473 -5.07324,-38.9475 7.47234,-0.1989 3.35815,38.7237 -5.75725,0.4227"
         style="fill:#3a3a3c;fill-opacity:1;fill-rule:evenodd;stroke:none;stroke-width:0.201348"
         id="path44" />
      <path
         d="m 120.52218,1864.896 c 6.80157,0.011 24.69375,-2.9511 28.40864,-5.7908 7.26657,-5.557 21.76116,-29.3276 20.12343,-44.4511 -1.71925,-15.8907 -35.95011,-4.9819 -41.59097,18.4993 -0.72712,3.0211 -16.46776,32.2667 -6.9411,31.7426"
         style="fill:#3a3a3c;fill-opacity:1;fill-rule:evenodd;stroke:none;stroke-width:0.201348"
         id="path46" />
      <path
         d="m 185.98267,1896.5597 h -3.78743 l 0.11501,-81.2895 h 3.78744 l -0.11502,81.2895"
         style="fill:#3a3a3c;fill-opacity:1;fill-rule:evenodd;stroke:none;stroke-width:0.201348"
         id="path48" />
      <path
         d="m 256.73493,1797.0999 4.19505,27.8038 2.98907,12.1092 c 1.38141,5.5955 5.35302,6.2916 9.60557,6.2976 l 13.13605,0.018 c -7e-4,19.1844 -68.90497,16.2802 -91.65149,16.2479 l 0.27873,-36.1736 -28.88974,-0.041 c -3.86687,13.4767 -13.45735,29.2487 -20.15131,32.8534 -52.889818,16.4356 -75.595429,-13.8952 -75.391304,-18.7232 0.608325,-14.4035 28.713538,-3.5151 32.720754,-25.1059 2.88927,-15.5761 14.84104,-26.6997 30.13761,-26.6781 9.13721,0.013 13.16734,10.6356 22.50388,10.6993 l 100.51713,0.6918"
         style="fill:#075f81;fill-opacity:1;fill-rule:evenodd;stroke:none;stroke-width:0.201348"
         id="path50" />
      <path
         d="m 286.66474,1843.3292 -3.81159,-34.176 -32.44149,-0.046 10.25886,35.526 25.99422,-1.3041"
         style="fill:#3a3a3c;fill-opacity:1;fill-rule:evenodd;stroke:none;stroke-width:0.201348"
         id="path52" />
      <path
         d="m 284.69736,1843.4271 -4.62687,-34.2778 h -1.97924 l 4.75356,34.3725 1.85255,-0.092"
         style="fill:#211c1d;fill-opacity:1;fill-rule:evenodd;stroke:none;stroke-width:0.201348"
         id="path54" />
      <path
         d="m 280.35599,1843.6445 -4.65681,-34.5013 h -1.97924 l 4.7835,34.5962 1.85255,-0.092"
         style="fill:#211c1d;fill-opacity:1;fill-rule:evenodd;stroke:none;stroke-width:0.201348"
         id="path56" />
      <path
         d="m 276.01454,1843.8618 -4.68864,-34.7248 h -1.97931 l 4.8154,34.8216 1.85255,-0.094"
         style="fill:#211c1d;fill-opacity:1;fill-rule:evenodd;stroke:none;stroke-width:0.201348"
         id="path58" />
      <path
         d="m 271.67112,1844.0811 -4.71652,-34.9504 h -1.97932 l 4.84525,35.0472 1.85059,-0.094"
         style="fill:#211c1d;fill-opacity:1;fill-rule:evenodd;stroke:none;stroke-width:0.201348"
         id="path60" />
      <path
         d="m 267.32967,1844.2985 -4.74842,-35.174 h -1.97924 l 4.87715,35.2709 1.85051,-0.094"
         style="fill:#211c1d;fill-opacity:1;fill-rule:evenodd;stroke:none;stroke-width:0.201348"
         id="path62" />
      <path
         d="m 262.98823,1844.5158 -4.77829,-35.3975 h -1.97924 l 4.90701,35.4944 1.85052,-0.094"
         style="fill:#211c1d;fill-opacity:1;fill-rule:evenodd;stroke:none;stroke-width:0.201348"
         id="path64" />
      <path
         d="m 60.430649,1778.4453 c -0.444352,-3.3188 1.293883,-6.5521 4.049488,-7.3697 2.902704,-0.8616 5.833314,1.2748 6.547205,4.7752 0.287932,1.4179 0.163094,2.8413 -0.27558,4.089 l 10.137985,0.014 c 0.593983,9e-4 1.080969,0.1747 1.080672,0.3841 l -0.0021,1.4758 c -2.96e-4,0.2094 -0.487769,0.3799 -1.081751,0.379 l -13.204543,-0.018 c -0.596017,-8e-4 -1.083074,-0.1727 -1.082777,-0.3821 l 0.002,-1.4758 c 2.96e-4,-0.2094 0.48784,-0.382 1.083858,-0.3811 h 0.795344 c -0.0095,-0.4631 -0.06107,-0.9384 -0.159136,-1.4197 -0.585848,-2.8741 -2.562492,-4.7595 -4.415689,-4.2084 -1.327422,0.3928 -2.233659,1.9278 -2.423598,3.8242 l -1.051477,0.3126"
         style="fill:#096a8e;fill-opacity:1;fill-rule:evenodd;stroke:none;stroke-width:0.201348"
         id="path66" />
      <path
         d="m 196.07394,1857.0214 h -3.77537 l 0.0476,-33.6148 3.77535,0.011 -0.0476,33.6147"
         style="fill:#3a3a3c;fill-opacity:1;fill-rule:evenodd;stroke:none;stroke-width:0.201348"
         id="path68" />
      <path
         d="m 194.91959,1898.6926 c -0.0113,7.9854 -44.39941,8.289 -67.04899,6.6624 -7.98276,-0.5711 -8.0844,-5.5747 -8.55143,-9.9386 l 5.813,0.011 c 0.40424,1.7543 1.33045,3.1711 8.62942,3.1814 l 61.158,0.087"
         style="fill:#085471;fill-opacity:1;fill-rule:evenodd;stroke:none;stroke-width:0.201348"
         id="path70" />
      <path
         d="m 197.48576,1859.5806 -49.14142,-0.07 0.004,-3.1894 49.65871,0.2072 -0.52179,3.0517"
         style="fill:#3a3a3c;fill-opacity:1;fill-rule:evenodd;stroke:none;stroke-width:0.201348"
         id="path72" />
      <path
         d="m 119.96797,1893.6818 v 0 c -0.58648,1.7951 -2.53288,2.785 -4.33014,2.1985 l -2.21384,-0.7218 2.12949,-6.5288 2.21383,0.722 c 1.79523,0.5865 2.78512,2.5328 2.20066,4.3301"
         style="fill:#3a3a3c;fill-opacity:1;fill-rule:evenodd;stroke:none;stroke-width:0.201348"
         id="path74" />
      <path
         d="m 200.34168,1888.957 -4.73578,-0.011 c -0.84364,0 -1.53132,-0.6908 -1.53013,-1.5364 l 0.0227,-16.0372 c 0.001,-0.8437 0.69083,-1.5314 1.53446,-1.5302 l 4.73579,0.011 c 0.84363,0 1.53329,0.6908 1.5321,1.5344 l -0.0227,16.0373 c -0.001,0.8456 -0.6928,1.5332 -1.53643,1.532"
         style="fill:#3a3a3c;fill-opacity:1;fill-rule:evenodd;stroke:none;stroke-width:0.201348"
         id="path76" />
      <path
         d="m 197.53846,1886.3698 h 1.42759 l -0.009,5.682 c -0.004,2.8913 -2.36119,5.2558 -5.25463,5.2699 l -7.26274,0.03 -0.006,-1.4256 7.26274,-0.032 c 2.11014,-0.011 3.83011,-1.7343 3.83309,-3.8443 l 0.009,-5.682"
         style="fill:#3a3a3c;fill-opacity:1;fill-rule:nonzero;stroke:none;stroke-width:0.201348"
         id="path78" />
      <path
         d="m 280.35142,1846.866 c -10.7461,4.2654 -51.73327,7.3464 -81.34106,8.1824 l -0.30738,-6.1697 c 21.3649,0.2798 57.21301,-0.9218 81.64955,-2.7879 l -10e-4,0.7752"
         style="fill:#0d91c3;fill-opacity:1;fill-rule:evenodd;stroke:none;stroke-width:0.201348"
         id="path80" />
      <path
         d="m 66.276314,1833.5963 c 2.281784,8.2062 33.038749,30.4663 60.655456,22.3166 25.09268,-7.4023 38.96169,-24.4629 39.43397,-59.4362 l -32.4858,-0.024 -67.603626,37.1434"
         style="fill:#3a3a3c;fill-opacity:1;fill-rule:evenodd;stroke:none;stroke-width:0.201348"
         id="path82" />
      <path
         d="m 113.74802,1845.4624 c -26.515765,-0.037 -47.98753,-21.5697 -47.950016,-48.085 0.03752,-26.5152 21.570122,-47.9866 48.085896,-47.9491 26.51373,0.037 47.98753,21.5697 47.95001,48.0851 -0.0375,26.5152 -21.57216,47.9866 -48.08589,47.949"
         style="fill:#3a3a3c;fill-opacity:1;fill-rule:evenodd;stroke:none;stroke-width:0.201348"
         id="path84" />
      <path
         d="m 113.7577,1838.6228 c -22.73844,-0.032 -41.151982,-18.4977 -41.119811,-41.2357 0.03217,-22.7381 18.497889,-41.1512 41.236331,-41.1191 22.73844,0.032 41.14994,18.4976 41.11777,41.2356 -0.0321,22.7381 -18.49585,41.1513 -41.23429,41.1192"
         style="fill:#505256;fill-opacity:1;fill-rule:evenodd;stroke:none;stroke-width:0.201348"
         id="path86" />
      <path
         d="m 125.97588,1844.1307 c -0.92048,0.2383 -1.85102,0.4505 -2.79157,0.6344 l -2.49521,-8.2084 c 1.3272,-0.2318 2.6304,-0.5279 3.90949,-0.8885 l 1.37729,8.4625 m 9.43829,-3.5525 c -0.85231,0.4276 -1.71666,0.8292 -2.59508,1.2065 l -4.14726,-7.5101 c 1.24505,-0.5036 2.45802,-1.0677 3.63472,-1.6882 l 3.10762,7.9918 m 8.49059,-5.4424 c -0.74581,0.5969 -1.50771,1.1717 -2.28777,1.7243 l -5.61651,-6.4833 c 1.11048,-0.7494 2.1788,-1.5553 3.20487,-2.4096 l 4.69941,7.1686 m 7.18013,-7.0773 c -0.60913,0.7381 -1.23635,1.456 -1.88565,2.1578 l -6.84065,-5.1742 c 0.92957,-0.9611 1.81092,-1.9686 2.63996,-3.0185 l 6.08634,6.0349 m 5.55708,-8.4124 c -0.44014,0.847 -0.90848,1.6819 -1.39687,2.4987 l -7.76899,-3.6392 c 0.70837,-1.1306 1.36037,-2.2976 1.95401,-3.5007 l 7.21185,4.6412 m 3.67987,-9.3896 c -0.253,0.9237 -0.53012,1.8375 -0.83748,2.737 l -8.35933,-1.9447 c 0.45685,-1.2477 0.84924,-2.5277 1.18131,-3.83 l 8.0155,3.0377 m 1.63902,-9.9503 c -0.0576,0.9583 -0.14167,1.9106 -0.25375,2.8527 l -8.5753,-0.1632 c 0.18511,-1.3125 0.30175,-2.6432 0.35602,-3.9942 l 8.47303,1.3047 m -0.45087,-10.072 c 0.14157,0.9385 0.25301,1.889 0.33827,2.8435 l -8.42482,1.623 c -0.0907,-1.3471 -0.24993,-2.6762 -0.47359,-3.9814 l 8.56014,-0.4851 m -2.53934,-9.7589 c 0.335,0.8904 0.64984,1.793 0.93041,2.7075 l -7.9057,3.3392 c -0.36868,-1.2912 -0.80176,-2.5582 -1.29539,-3.7932 l 8.27068,-2.2535 m -4.51761,-9.0146 c 0.51431,0.8041 1.00241,1.6222 1.46839,2.4565 l -7.0341,4.909 c -0.63057,-1.1829 -1.31753,-2.3315 -2.05896,-3.44 l 7.62467,-3.9255 m -6.29718,-7.8756 c 0.66953,0.6796 1.32092,1.3792 1.94814,2.0989 l -5.86012,6.2636 c -0.85834,-1.0261 -1.76908,-2.0059 -2.72615,-2.9395 l 6.63813,-5.423 m -7.78726,-6.4017 c 0.79664,0.5266 1.57908,1.0734 2.34343,1.6442 l -4.43204,7.349 c -1.05191,-0.823 -2.14613,-1.5936 -3.27877,-2.31 l 5.36738,-6.6832 m -8.94746,-4.6517 c 0.8915,0.3496 1.76885,0.7274 2.63206,1.1273 l -2.80824,8.1082 c -1.19514,-0.5856 -2.42468,-1.1148 -3.68449,-1.5797 l 3.86067,-7.6558 m -9.72546,-2.6735 c 0.94813,0.1564 1.88416,0.3389 2.8101,0.5496 l -1.05908,8.5134 c -1.28619,-0.3219 -2.60063,-0.5774 -3.93332,-0.7707 l 2.1823,-8.2923 m -10.06466,-0.5942 c 0.74704,-0.033 1.49609,-0.053 2.25318,-0.051 0.20333,3e-4 0.40671,0.011 0.61004,0.011 l 0.73294,8.5462 c -0.44896,-0.017 -0.90199,-0.028 -1.35707,-0.028 -0.88997,0 -1.77393,0.032 -2.6519,0.089 l 0.41281,-8.5647 m -9.97098,1.498 c 0.91851,-0.2383 1.85102,-0.4503 2.7896,-0.6363 l 2.49522,8.2084 c -1.32523,0.2337 -2.63041,0.5299 -3.90747,0.8905 l -1.37735,-8.4626 m -9.440326,3.5505 c 0.852312,-0.4276 1.71673,-0.829 2.595147,-1.2084 l 4.149223,7.5141 c -1.245033,0.5016 -2.457946,1.0657 -3.636758,1.6861 l -3.107612,-7.9918 m -8.490579,5.4405 c 0.745865,-0.5949 1.507777,-1.1717 2.287761,-1.7223 l 5.618614,6.4832 c -1.112523,0.7495 -2.180838,1.5534 -3.206905,2.4097 l -4.69947,-7.1706 m -7.18007,7.0792 c 0.607099,-0.738 1.236352,-1.4579 1.885651,-2.1577 l 6.840649,5.1742 c -0.929638,0.9611 -1.810913,1.9666 -2.639963,3.0184 l -6.086337,-6.0349 m -5.557079,8.4105 c 0.440141,-0.847 0.906442,-1.68 1.394832,-2.4987 l 7.771029,3.6392 c -0.70837,1.1306 -1.360368,2.2995 -1.956051,3.5007 l -7.20981,-4.6412 m -3.681903,9.3896 c 0.25496,-0.9238 0.530118,-1.8375 0.83747,-2.7372 l 8.35934,1.9449 c -0.456852,1.2496 -0.849247,2.5277 -1.181313,3.8299 l -8.015497,-3.0376 m -1.640987,9.9503 c 0.05765,-0.9584 0.141602,-1.9106 0.253688,-2.8528 l 8.577327,0.1652 c -0.185109,1.3105 -0.303783,2.6432 -0.356015,3.9922 l -8.475,-1.3046 m 0.450868,10.0739 c -0.141637,-0.9404 -0.251051,-1.8869 -0.338273,-2.8434 l 8.424749,-1.6231 c 0.09074,1.3472 0.251972,2.6743 0.473596,3.9814 l -8.560072,0.4851 m 2.539278,9.7589 c -0.335001,-0.8904 -0.647807,-1.7928 -0.930419,-2.7053 l 7.905699,-3.3414 c 0.368681,1.2933 0.803799,2.5584 1.295388,3.7933 l -8.270668,2.2534 m 4.517673,9.0167 c -0.514377,-0.8041 -1.002483,-1.6243 -1.468392,-2.4585 l 7.036065,-4.9069 c 0.628526,1.1827 1.315564,2.3314 2.056987,3.4378 l -7.62466,3.9276 m 6.297168,7.8755 c -0.669593,-0.6794 -1.318946,-1.379 -1.948132,-2.0967 l 5.862092,-6.2657 c 0.858326,1.026 1.769075,2.0059 2.726144,2.9395 l -6.640104,5.4229 m 7.789228,6.4038 c -0.796636,-0.5267 -1.579066,-1.0754 -2.343424,-1.6463 l 4.432038,-7.347 c 1.049871,0.8231 2.146138,1.5938 3.276734,2.3082 l -5.365348,6.6851 m 8.947466,4.6497 c -0.88947,-0.3497 -1.766827,-0.7254 -2.632069,-1.1253 l 2.808238,-8.1082 c 1.195145,0.5856 2.424691,1.1128 3.684494,1.5797 l -3.860663,7.6538 m 9.725453,2.6736 c -0.94609,-0.1564 -1.88211,-0.339 -2.81009,-0.5476 l 1.06111,-8.5136 c 1.28619,0.3201 2.60062,0.5775 3.93332,0.7687 l -2.18434,8.2925 m 10.06671,0.592 0.4128,-8.5627 c -0.87796,0.057 -1.76396,0.088 -2.65799,0.087 -0.45305,-7e-4 -0.90202,-0.012 -1.35097,-0.028 l 0.73286,8.5462 c 0.20339,0 0.40469,0.011 0.60808,0.011 0.75506,0 1.50812,-0.018 2.25522,-0.051"
         style="fill:#505256;fill-opacity:1;fill-rule:evenodd;stroke:none;stroke-width:0.201348"
         id="path88" />
      <path
         d="m 113.77821,1824.1218 c -14.732762,-0.021 -26.659937,-11.9837 -26.639096,-26.7142 0.02084,-14.7304 11.981818,-26.6595 26.714586,-26.6386 14.73074,0.021 26.65791,11.9836 26.63707,26.7142 -0.0209,14.7304 -11.98182,26.6594 -26.71256,26.6386"
         style="fill:#f9dd09;fill-opacity:1;fill-rule:evenodd;stroke:none;stroke-width:0.201348"
         id="path90" />
      <path
         d="m 113.78276,1819.4706 c -12.16151,-0.017 -22.009708,-9.8951 -21.992503,-22.0564 0.01721,-12.1633 9.893313,-22.0113 22.054833,-21.9942 12.16355,0.017 22.01378,9.8932 21.99657,22.0565 -0.0172,12.1614 -9.89535,22.0114 -22.0589,21.9941"
         style="fill:#eab512;fill-opacity:1;fill-rule:evenodd;stroke:none;stroke-width:0.201348"
         id="path92" />
      <path
         d="m 113.80096,1806.6107 c -5.05991,-0.011 -9.15962,-4.1185 -9.15245,-9.1783 0.007,-5.0618 4.11848,-9.1615 9.17838,-9.1543 5.06194,0.011 9.16165,4.1184 9.15449,9.1802 -0.008,5.0599 -4.11849,9.1595 -9.18042,9.1524"
         style="fill:#f9dd09;fill-opacity:1;fill-rule:evenodd;stroke:none;stroke-width:0.201348"
         id="path94" />
      <path
         d="m 113.7936,1811.8074 c -0.78123,0 -1.41454,-0.6362 -1.41343,-1.4175 10e-4,-0.7812 0.6362,-1.4146 1.41744,-1.4134 0.78328,0 1.41665,0.6362 1.41554,1.4175 -0.001,0.7812 -0.63627,1.4145 -1.41955,1.4134"
         style="fill:#f9dd09;fill-opacity:1;fill-rule:evenodd;stroke:none;stroke-width:0.201348"
         id="path96" />
      <path
         d="m 122.2421,1809.077 c -0.63485,0.4602 -1.51857,0.318 -1.9788,-0.3149 -0.45819,-0.6329 -0.316,-1.5186 0.31689,-1.9788 0.63287,-0.4582 1.51863,-0.3159 1.97683,0.3169 0.45818,0.6329 0.316,1.5186 -0.31492,1.9768"
         style="fill:#f9dd09;fill-opacity:1;fill-rule:evenodd;stroke:none;stroke-width:0.201348"
         id="path98" />
      <path
         d="m 127.47127,1801.9044 c -0.24466,0.7446 -1.04459,1.1502 -1.78723,0.9075 -0.74265,-0.2427 -1.14825,-1.0425 -0.90561,-1.7851 0.2427,-0.7447 1.04262,-1.1503 1.78527,-0.9076 0.74264,0.2426 1.15027,1.0425 0.90757,1.7852"
         style="fill:#f9dd09;fill-opacity:1;fill-rule:evenodd;stroke:none;stroke-width:0.201348"
         id="path100" />
      <path
         d="m 127.48383,1793.0291 c 0.24059,0.7432 -0.16726,1.542 -0.91059,1.7825 -0.74333,0.2387 -1.5421,-0.1692 -1.7827,-0.9126 -0.24256,-0.7432 0.16726,-1.542 0.91059,-1.7825 0.74333,-0.2406 1.5421,0.1673 1.7827,0.9126"
         style="fill:#f9dd09;fill-opacity:1;fill-rule:evenodd;stroke:none;stroke-width:0.201348"
         id="path102" />
      <path
         d="m 122.27905,1785.8396 c 0.62954,0.46 0.76922,1.3441 0.30925,1.9777 -0.45991,0.6316 -1.34607,0.7692 -1.97765,0.3094 -0.63159,-0.46 -0.77133,-1.3462 -0.31136,-1.9778 0.45999,-0.6315 1.34614,-0.7712 1.97976,-0.3093"
         style="fill:#f9dd09;fill-opacity:1;fill-rule:evenodd;stroke:none;stroke-width:0.201348"
         id="path104" />
      <path
         d="m 113.84029,1783.0814 c 0.78123,10e-4 1.4146,0.6382 1.4135,1.4194 -10e-4,0.7813 -0.63627,1.4145 -1.41752,1.4135 -0.7832,0 -1.41454,-0.6363 -1.41344,-1.4175 10e-4,-0.7812 0.63425,-1.4166 1.41746,-1.4154"
         style="fill:#f9dd09;fill-opacity:1;fill-rule:evenodd;stroke:none;stroke-width:0.201348"
         id="path106" />
      <path
         d="m 105.39383,1785.8118 c 0.63288,-0.4582 1.51864,-0.3181 1.97683,0.3168 0.45818,0.6329 0.31593,1.5187 -0.31695,1.9768 -0.63288,0.4582 -1.51857,0.318 -1.97677,-0.3169 -0.45819,-0.6328 -0.316,-1.5185 0.31689,-1.9767"
         style="fill:#f9dd09;fill-opacity:1;fill-rule:evenodd;stroke:none;stroke-width:0.201348"
         id="path108" />
      <path
         d="m 100.16465,1792.9844 c 0.2427,-0.7426 1.04262,-1.1482 1.78527,-0.9056 0.74264,0.2427 1.14824,1.0426 0.90758,1.7852 -0.24467,0.7427 -1.04263,1.1482 -1.78724,0.9056 -0.74265,-0.2427 -1.148237,-1.0427 -0.90561,-1.7852"
         style="fill:#f9dd09;fill-opacity:1;fill-rule:evenodd;stroke:none;stroke-width:0.201348"
         id="path110" />
      <path
         d="m 100.15013,1801.8617 c -0.240606,-0.7433 0.16725,-1.5421 0.91059,-1.7826 0.74536,-0.2406 1.54413,0.1672 1.78465,0.9105 0.2406,0.7434 -0.16929,1.5422 -0.91262,1.7847 -0.74332,0.2386 -1.5421,-0.1693 -1.78262,-0.9126"
         style="fill:#f9dd09;fill-opacity:1;fill-rule:evenodd;stroke:none;stroke-width:0.201348"
         id="path112" />
      <path
         d="m 105.35694,1809.0512 c -0.63158,-0.46 -0.77132,-1.3462 -0.31135,-1.9777 0.46201,-0.6316 1.34817,-0.7713 1.97772,-0.3114 0.63362,0.462 0.77126,1.3462 0.31129,1.9777 -0.45999,0.6316 -1.34607,0.7713 -1.97766,0.3114"
         style="fill:#f9dd09;fill-opacity:1;fill-rule:evenodd;stroke:none;stroke-width:0.201348"
         id="path114" />
      <path
         d="m 184.77209,1911.1073 h -2.19267 l 0.0265,-18.6708 h 2.19268 l -0.0265,18.6708"
         style="fill:#3a3a3c;fill-opacity:1;fill-rule:evenodd;stroke:none;stroke-width:0.201348"
         id="path116" />
      <path
         d="m 183.66341,1920.5489 v 0 c -2.05378,0 -3.72864,-1.6825 -3.72573,-3.7342 l 0.003,-2.5349 c 0.003,-2.0518 1.68251,-3.7266 3.73629,-3.7237 2.05173,0 3.72659,1.6825 3.72369,3.7342 l -0.003,2.535 c -0.003,2.0517 -1.6825,3.7266 -3.73424,3.7236"
         style="fill:#f37016;fill-opacity:1;fill-rule:evenodd;stroke:none;stroke-width:0.201348"
         id="path118" />
      <path
         d="m 179.9411,1914.3945 1.6e-4,-0.1147 c 0.003,-2.0518 1.68251,-3.7266 3.73629,-3.7237 2.05174,0 3.72659,1.6825 3.72369,3.7342 l -1.6e-4,0.1149 -7.45998,-0.011"
         style="fill:#3a3a3c;fill-opacity:1;fill-rule:evenodd;stroke:none;stroke-width:0.201348"
         id="path120" />
      <path
         d="m 260.66255,1844.6092 c -14.32998,1.3287 -42.77139,1.8039 -64.57156,1.749 l 0.0324,-22.9535 -28.73265,-0.041 1.16962,-26.8722 77.11036,0.53 11.22273,34.5246 3.771,13.0627"
         style="fill:#06465d;fill-opacity:1;fill-rule:evenodd;stroke:none;stroke-width:0.201348"
         id="path122" />
      <path
         d="m 275.89856,1826.2196 v 0 c -0.0171,-2.2813 2.64354,-4.154 5.91752,-4.1655 l 4.03311,-0.013 0.0648,8.2955 -4.03508,0.011 c -3.26997,0.011 -5.96144,-1.8467 -5.98032,-4.128"
         style="fill:#505256;fill-opacity:1;fill-rule:evenodd;stroke:none;stroke-width:0.201348"
         id="path124" />
      <path
         d="m 174.67793,1818.9528 1.92952,-38.8693 -7.09957,-0.011 -2.24768,38.8689 7.41773,0.011"
         style="fill:#05384b;fill-opacity:1;fill-rule:evenodd;stroke:none;stroke-width:0.201348"
         id="path126" />
      <path
         d="m 206.22263,1828.0882 -20.14304,-0.029 2.33638,-44.6151 12.19372,0.017 c 1.19604,0 2.18338,0.9192 2.2723,2.1134 1.0115,13.707 2.64499,26.1203 6.2697,34.3827 0.27299,0.6206 0.26604,1.2628 -0.021,1.8786 l -2.90829,6.2516"
         style="fill:#505256;fill-opacity:1;fill-rule:evenodd;stroke:none;stroke-width:0.201348"
         id="path128" />
      <path
         d="m 188.67979,1818.9726 1.93576,-38.974 -7.10583,0.094 -2.24969,38.8689 7.41976,0.011"
         style="fill:#05384b;fill-opacity:1;fill-rule:evenodd;stroke:none;stroke-width:0.201348"
         id="path130" />
      <path
         d="m 187.12191,1811.446 -18.1819,-0.026 0.002,-1.8785 18.18191,0.026 -0.002,1.8785"
         style="fill:#0d94c6;fill-opacity:1;fill-rule:evenodd;stroke:none;stroke-width:0.201348"
         id="path132" />
      <path
         d="m 187.97873,1797.8644 -18.18388,-0.026 0.002,-1.8805 18.18387,0.026 -0.002,1.8805"
         style="fill:#0d94c7;fill-opacity:1;fill-rule:evenodd;stroke:none;stroke-width:0.201348"
         id="path134" />
      <path
         d="m 188.83684,1781.9813 -18.18192,-0.026 0.002,-1.8805 18.1819,0.026 -0.002,1.8805"
         style="fill:#0d8ebe;fill-opacity:1;fill-rule:evenodd;stroke:none;stroke-width:0.201348"
         id="path136" />
      <path
         d="m 251.84675,1820.8741 3.29772,18.7762 c 0.26964,1.5406 -0.17938,2.9576 -1.32273,4.168 -1.14539,1.2105 -2.6665,1.8789 -4.48079,1.9709 l -6.0148,0.2995 c -3.18554,0.1586 -5.9696,-1.736 -6.5114,-4.4348 l -3.78891,-18.8534 c -0.31797,-1.5709 0.12508,-3.0321 1.29466,-4.2728 1.16957,-1.2406 2.73904,-1.917 4.59765,-1.9808 l 6.50796,-0.2243 c 3.19356,-0.1123 5.94524,1.8386 6.42064,4.5515"
         style="fill:#042835;fill-opacity:1;fill-rule:evenodd;stroke:none;stroke-width:0.201348"
         id="path138" />
      <path
         d="m 250.56804,1822.3964 2.40768,16.0085 c 0.19944,1.3151 -0.13046,2.5227 -0.96749,3.5545 -0.83709,1.0337 -1.95139,1.6019 -3.27837,1.6806 l -4.3999,0.2574 c -2.33177,0.1357 -4.36719,-1.48 -4.76463,-3.7798 l -2.76798,-16.0755 c -0.23162,-1.3393 0.0923,-2.5852 0.94746,-3.643 0.85728,-1.0579 2.00578,-1.6362 3.365,-1.6906 l 4.76015,-0.1927 c 2.33781,-0.095 4.34895,1.5667 4.69808,3.8806"
         style="fill:#05384b;fill-opacity:1;fill-rule:evenodd;stroke:none;stroke-width:0.201348"
         id="path140" />
      <path
         d="m 253.73023,1837.359 -16.45664,1.5894 0.1194,-1.8421 16.33985,-1.5897 -0.002,1.8424"
         style="fill:#0fa6de;fill-opacity:1;fill-rule:evenodd;stroke:none;stroke-width:0.201348"
         id="path142" />
      <path
         d="m 251.94937,1826.6146 -15.91705,4.4715 -0.2088,-1.8366 15.80227,-4.4475 0.32358,1.8126"
         style="fill:#0d93c5;fill-opacity:1;fill-rule:evenodd;stroke:none;stroke-width:0.201348"
         id="path144" />
      <path
         d="m 274.45142,1828.6358 c -34.81886,12.3859 -65.58675,-12.1817 -64.02944,-39.8264 1.49678,-0.4952 2.9935,-0.9925 4.48818,-1.4896 5.24206,36.4008 30.5402,45.9985 56.32211,39.5838 -0.49837,0.7282 3.71955,1.004 3.21915,1.7322"
         style="fill:#65686c;fill-opacity:1;fill-rule:evenodd;stroke:none;stroke-width:0.201348"
         id="path146" />
      <path
         d="m 206.22263,1828.0882 -20.14304,-0.029 0.36425,-6.9841 22.89551,0.032 c -0.0268,0.2456 -0.0953,0.4892 -0.20842,0.7286 l -2.9083,6.2517"
         style="fill:#65686c;fill-opacity:1;fill-rule:evenodd;stroke:none;stroke-width:0.201348"
         id="path148" />
      <path
         d="m 203.96743,1833.8314 h -2.82293 c -0.51546,-7e-4 -0.93766,-0.4241 -0.93693,-0.9396 l 0.007,-5.0155 c 7.4e-4,-0.5195 0.42412,-0.9417 0.93958,-0.941 h 2.82293 c 0.51749,8e-4 0.93969,0.4241 0.93895,0.9437 l -0.007,5.0155 c -7.2e-4,0.5155 -0.42411,0.9377 -0.9416,0.9369"
         style="fill:#505256;fill-opacity:1;fill-rule:evenodd;stroke:none;stroke-width:0.201348"
         id="path150" />
      <path
         d="m 188.67081,1828.1399 -23.82976,-0.034 c 1.33258,-3.9848 1.56583,-6.6322 2.06688,-9.2529 l 21.77598,0.031 -0.0131,9.256"
         style="fill:#3a3a3c;fill-opacity:1;fill-rule:evenodd;stroke:none;stroke-width:0.201348"
         id="path152" />
      <path
         d="m 259.03914,1826.4575 c -21.27064,-0.03 -38.49587,-17.3038 -38.46577,-38.5741 0.0301,-21.2702 17.30413,-38.4952 38.57477,-38.4651 21.27065,0.03 38.49587,17.3039 38.46578,38.5742 -0.0301,21.2702 -17.30413,38.4951 -38.57478,38.465"
         style="fill:#3a3a3c;fill-opacity:1;fill-rule:evenodd;stroke:none;stroke-width:0.201348"
         id="path154" />
      <path
         d="m 259.04691,1820.9708 c -18.24031,-0.026 -33.01257,-14.8396 -32.98677,-33.0796 0.0258,-18.2399 14.83994,-33.0099 33.08023,-32.9841 18.24031,0.026 33.01055,14.8376 32.98474,33.0775 -0.0258,18.2401 -14.8379,33.012 -33.0782,32.9862"
         style="fill:#505256;fill-opacity:1;fill-rule:evenodd;stroke:none;stroke-width:0.201348"
         id="path156" />
      <path
         d="m 268.84844,1825.3882 c -0.73926,0.1922 -1.48445,0.3602 -2.23972,0.5102 l -2.00222,-6.5849 c 1.06541,-0.1857 2.11074,-0.4238 3.13804,-0.7123 l 1.1039,6.787 m 7.57281,-2.8485 c -0.68311,0.3413 -1.3782,0.6646 -2.08336,0.9676 l -3.3258,-6.025 c 0.99721,-0.4033 1.97041,-0.857 2.9154,-1.355 l 2.49376,6.4124 m 6.80979,-4.3656 c -0.5967,0.4784 -1.20944,0.9386 -1.83423,1.3806 l -4.50693,-5.1991 c 0.89081,-0.6027 1.74947,-1.2478 2.57196,-1.9332 l 3.7692,5.7517 m 5.75857,-5.6778 c -0.48609,0.5912 -0.99028,1.1683 -1.51052,1.7294 l -5.48899,-4.1495 c 0.74408,-0.7722 1.45192,-1.5785 2.11756,-2.4212 l 4.88195,4.8413 m 4.45941,-6.749 c -0.35329,0.6801 -0.72875,1.348 -1.12034,2.0039 l -6.2337,-2.9183 c 0.56908,-0.9072 1.09196,-1.8448 1.57052,-2.8086 l 5.78352,3.723 m 2.95236,-7.5322 c -0.20438,0.7407 -0.42692,1.4732 -0.67359,2.1957 l -6.70476,-1.5598 c 0.3659,-1.0022 0.68346,-2.0266 0.94666,-3.0732 l 6.43169,2.4373 m 1.31408,-7.9816 c -0.0452,0.7672 -0.11291,1.5322 -0.20263,2.287 l -6.87993,-0.1304 c 0.14846,-1.0529 0.24261,-2.1198 0.2864,-3.203 l 6.79616,1.0464 m -0.36111,-8.0805 c 0.11376,0.7533 0.20329,1.5144 0.27064,2.2817 l -6.75717,1.3011 c -0.0729,-1.0812 -0.20233,-2.1445 -0.38003,-3.1938 l 6.86656,-0.389 m -2.03666,-7.8292 c 0.26884,0.7152 0.51951,1.4383 0.74594,2.1715 l -6.34227,2.6811 c -0.29654,-1.0374 -0.64344,-2.0526 -1.03866,-3.0438 l 6.63499,-1.8088 m -3.62611,-7.2294 c 0.41382,0.6428 0.80557,1.2998 1.17914,1.9688 l -5.64339,3.9384 c -0.50407,-0.9491 -1.05443,-1.8701 -1.65122,-2.7608 l 6.11547,-3.1464 m -5.04901,-6.3195 c 0.53685,0.5444 1.05754,1.1069 1.56214,1.6835 l -4.70059,5.0251 c -0.68946,-0.8225 -1.41926,-1.6088 -2.18941,-2.3569 l 5.32786,-4.3517 m -6.24868,-5.135 c 0.6397,0.4217 1.26732,0.8615 1.88073,1.3194 l -3.5561,5.8945 c -0.8427,-0.6597 -1.72175,-1.277 -2.629,-1.8521 l 4.30437,-5.3618 m -7.17692,-3.7311 c 0.71444,0.2809 1.41876,0.5819 2.11089,0.903 l -2.2522,6.5043 c -0.95983,-0.4705 -1.9438,-0.8927 -2.95605,-1.2666 l 3.09736,-6.1407 m -7.79925,-2.1453 c 0.75691,0.1259 1.50973,0.2719 2.25248,0.4401 l -0.85133,6.8305 c -1.03053,-0.2571 -2.08534,-0.464 -3.15427,-0.6186 l 1.75312,-6.652 m -8.07752,-0.4766 c 0.60005,-0.026 1.20213,-0.041 1.80819,-0.04 l 0.48925,0.011 0.58836,6.8547 c -0.36046,-0.013 -0.72282,-0.021 -1.0873,-0.021 -0.71476,-9e-4 -1.42558,0.025 -2.12834,0.07 l 0.32984,-6.8695 m -7.99735,1.2008 c 0.73722,-0.1902 1.48452,-0.3603 2.23776,-0.5102 l 2.00214,6.5868 c -1.06541,0.1858 -2.11074,0.4239 -3.13601,0.7124 l -1.10389,-6.789 m -7.57274,2.8505 c 0.68304,-0.3434 1.37617,-0.6666 2.08133,-0.9696 l 3.32783,6.025 c -0.99932,0.4033 -1.97246,0.857 -2.91751,1.3549 l -2.49165,-6.4103 m -6.81183,4.3636 c 0.59866,-0.4784 1.20945,-0.9407 1.83627,-1.3827 l 4.5049,5.2011 c -0.89081,0.6008 -1.7475,1.2459 -2.57,1.9333 l -3.77117,-5.7517 m -5.75864,5.6778 c 0.4861,-0.5912 0.99029,-1.1683 1.5106,-1.7294 l 5.48898,4.1495 c -0.74611,0.7701 -1.45199,1.5785 -2.11763,2.4212 l -4.88195,-4.8413 m -4.45933,6.7469 c 0.35329,-0.6801 0.72671,-1.348 1.12033,-2.0038 l 6.23364,2.9203 c -0.56908,0.9053 -1.09189,1.8427 -1.56841,2.8065 l -5.78556,-3.723 m -2.95243,7.5323 c 0.20241,-0.7407 0.42495,-1.4733 0.67162,-2.1958 l 6.70476,1.5598 c -0.36589,1.0022 -0.68142,2.0287 -0.94667,3.0732 l -6.42971,-2.4372 m -1.31605,7.9815 c 0.0452,-0.767 0.11291,-1.5301 0.20256,-2.287 l 6.88,0.1305 c -0.14846,1.0528 -0.24262,2.1218 -0.2864,3.205 l -6.79616,-1.0485 m 0.36111,8.0826 c -0.11376,-0.7533 -0.2033,-1.5144 -0.27064,-2.2817 l 6.75717,-1.3012 c 0.0729,1.0793 0.20029,2.1446 0.38002,3.1939 l -6.86655,0.389 m 2.03463,7.8292 c -0.26682,-0.7152 -0.51748,-1.4384 -0.74392,-2.1716 l 6.34229,-2.679 c 0.2945,1.0373 0.64344,2.0506 1.03866,3.0418 l -6.63703,1.8088 m 3.62617,7.2314 c -0.41186,-0.6428 -0.80361,-1.3018 -1.17914,-1.9708 l 5.64535,-3.9364 c 0.50407,0.949 1.05443,1.87 1.65123,2.7588 l -6.11744,3.1484 m 5.05301,6.3194 c -0.53889,-0.5465 -1.05958,-1.1069 -1.56417,-1.6834 l 4.70262,-5.0251 c 0.68743,0.8226 1.41927,1.6088 2.18534,2.3569 l -5.32379,4.3516 m 6.24664,5.1371 c -0.6397,-0.4236 -1.26732,-0.8615 -1.87875,-1.3215 l 3.55413,-5.8943 c 0.8427,0.6615 1.72174,1.279 2.62899,1.854 l -4.30437,5.3618 m 7.17693,3.7291 c -0.71445,-0.281 -1.41672,-0.5819 -2.1109,-0.903 l 2.2522,-6.5044 c 0.95983,0.4705 1.94584,0.8928 2.95606,1.2667 l -3.09736,6.1407 m 7.80325,2.1453 c -0.75888,-0.126 -1.5117,-0.2719 -2.25445,-0.4401 l 0.84929,-6.8305 c 1.03257,0.2571 2.08732,0.464 3.15631,0.6186 l -1.75115,6.652 m 8.07555,0.4746 0.33187,-6.8696 c -0.70683,0.047 -1.4156,0.071 -2.13241,0.07 -0.36448,-5e-4 -0.72487,-0.011 -1.08525,-0.021 l 0.58828,6.8548 0.4873,0.011 c 0.60808,8e-4 1.21016,-0.013 1.81021,-0.04"
         style="fill:#505256;fill-opacity:1;fill-rule:evenodd;stroke:none;stroke-width:0.201348"
         id="path158" />
      <path
         d="m 259.06337,1809.337 c -11.81725,-0.017 -21.38594,-9.6123 -21.36923,-21.4294 0.0167,-11.817 9.61253,-21.3854 21.42978,-21.3687 11.81725,0.017 21.38595,9.6123 21.36923,21.4293 -0.0167,11.8171 -9.61253,21.3855 -21.42978,21.3688"
         style="fill:#f9dd09;fill-opacity:1;fill-rule:evenodd;stroke:none;stroke-width:0.201348"
         id="path160" />
      <path
         d="m 259.06865,1805.6061 c -9.75744,-0.014 -17.65724,-7.9379 -17.64344,-17.6931 0.0138,-9.7573 7.93599,-17.657 17.69343,-17.6432 9.7554,0.014 17.65724,7.9359 17.64344,17.6931 -0.0138,9.7552 -7.93803,17.657 -17.69343,17.6432"
         style="fill:#eab512;fill-opacity:1;fill-rule:evenodd;stroke:none;stroke-width:0.201348"
         id="path162" />
      <path
         d="m 259.08324,1795.2911 c -4.0592,-0.011 -7.34864,-3.3024 -7.34289,-7.3635 0.005,-4.0612 3.3045,-7.3485 7.3637,-7.3428 4.05919,0.011 7.34863,3.3024 7.34289,7.3635 -0.005,4.0612 -3.3045,7.3485 -7.3637,7.3428"
         style="fill:#f9dd09;fill-opacity:1;fill-rule:evenodd;stroke:none;stroke-width:0.201348"
         id="path164" />
      <path
         d="m 259.07735,1799.4589 c -0.62823,-8e-4 -1.13489,-0.5109 -1.13401,-1.1372 8.9e-4,-0.6261 0.50899,-1.1348 1.13722,-1.1339 0.62619,9e-4 1.13488,0.5111 1.134,1.1372 -8.9e-4,0.6262 -0.51102,1.1349 -1.13721,1.1339"
         style="fill:#f9dd09;fill-opacity:1;fill-rule:evenodd;stroke:none;stroke-width:0.201348"
         id="path166" />
      <path
         d="m 265.85184,1797.2698 c -0.50592,0.3678 -1.21647,0.2541 -1.58423,-0.2538 -0.3698,-0.506 -0.25599,-1.2186 0.2519,-1.5863 0.50789,-0.3678 1.2185,-0.254 1.58626,0.254 0.36775,0.5078 0.25403,1.2184 -0.25393,1.5861"
         style="fill:#f9dd09;fill-opacity:1;fill-rule:evenodd;stroke:none;stroke-width:0.201348"
         id="path168" />
      <path
         d="m 270.04811,1791.5153 c -0.1942,0.5957 -0.83693,0.921 -1.43267,0.7268 -0.59569,-0.1941 -0.92099,-0.8349 -0.72686,-1.4326 0.19414,-0.5957 0.8349,-0.9209 1.43262,-0.7269 0.5937,0.1942 0.92105,0.8369 0.72691,1.4327"
         style="fill:#f9dd09;fill-opacity:1;fill-rule:evenodd;stroke:none;stroke-width:0.201348"
         id="path170" />
      <path
         d="m 270.05819,1784.3957 c 0.19245,0.5942 -0.13468,1.236 -0.73097,1.4285 -0.59622,0.1925 -1.23607,-0.1346 -1.43056,-0.731 -0.19244,-0.5962 0.13469,-1.238 0.73295,-1.4305 0.59629,-0.1925 1.23606,0.1347 1.42858,0.733"
         style="fill:#f9dd09;fill-opacity:1;fill-rule:evenodd;stroke:none;stroke-width:0.201348"
         id="path172" />
      <path
         d="m 265.88229,1778.6272 c 0.50685,0.3691 0.61863,1.0801 0.24943,1.587 -0.37122,0.5069 -1.08012,0.6186 -1.58703,0.2494 -0.50686,-0.3712 -0.61865,-1.0801 -0.24945,-1.587 0.3692,-0.5068 1.08013,-0.6186 1.58705,-0.2494"
         style="fill:#f9dd09;fill-opacity:1;fill-rule:evenodd;stroke:none;stroke-width:0.201348"
         id="path174" />
      <path
         d="m 259.11198,1776.4169 c 0.62817,9e-4 1.13685,0.509 1.13596,1.1372 -8.9e-4,0.6262 -0.51101,1.1349 -1.13917,1.134 -0.62621,-8e-4 -1.13292,-0.511 -1.13204,-1.1372 8.9e-4,-0.6282 0.50905,-1.1349 1.13525,-1.134"
         style="fill:#f9dd09;fill-opacity:1;fill-rule:evenodd;stroke:none;stroke-width:0.201348"
         id="path176" />
      <path
         d="m 252.33742,1778.6061 c 0.50796,-0.3678 1.21857,-0.2541 1.58633,0.2539 0.36776,0.5058 0.25396,1.2185 -0.25393,1.5842 -0.50797,0.3697 -1.21858,0.256 -1.58634,-0.2519 -0.36769,-0.5079 -0.25396,-1.2186 0.25394,-1.5862"
         style="fill:#f9dd09;fill-opacity:1;fill-rule:evenodd;stroke:none;stroke-width:0.201348"
         id="path178" />
      <path
         d="m 248.14324,1784.3607 c 0.19413,-0.5958 0.8349,-0.9231 1.43262,-0.7289 0.5937,0.1962 0.92099,0.8368 0.72685,1.4325 -0.19618,0.5978 -0.83687,0.923 -1.43261,0.7269 -0.59575,-0.1942 -0.92302,-0.8348 -0.72686,-1.4305"
         style="fill:#f9dd09;fill-opacity:1;fill-rule:evenodd;stroke:none;stroke-width:0.201348"
         id="path180" />
      <path
         d="m 248.13114,1791.4803 c -0.19245,-0.5964 0.13468,-1.2362 0.7309,-1.4306 0.59629,-0.1924 1.2381,0.1366 1.43055,0.7329 0.19251,0.5963 -0.13462,1.2361 -0.73091,1.4285 -0.59622,0.1945 -1.2381,-0.1326 -1.43054,-0.7308"
         style="fill:#f9dd09;fill-opacity:1;fill-rule:evenodd;stroke:none;stroke-width:0.201348"
         id="path182" />
      <path
         d="m 252.30908,1797.2487 c -0.50693,-0.3692 -0.61864,-1.0801 -0.24945,-1.587 0.3692,-0.5068 1.08013,-0.6186 1.58495,-0.2494 0.50888,0.3691 0.61863,1.0801 0.24943,1.587 -0.36919,0.5068 -1.08012,0.6186 -1.58493,0.2494"
         style="fill:#f9dd09;fill-opacity:1;fill-rule:evenodd;stroke:none;stroke-width:0.201348"
         id="path184" />
      <path
         d="m 259.65547,1749.4472 c 0.0204,2e-4 0.0421,2e-4 0.0624,2e-4 l -0.001,0.7248 -0.0614,-0.725 m -2.32359,0.011 -0.26348,5.5085 c -1.30087,0.078 -2.57763,0.2319 -3.83238,0.4577 l -1.60533,-5.2837 c 1.857,-0.3638 3.7621,-0.5946 5.70119,-0.6825 m -7.96309,1.1988 0.88632,5.4457 c -1.24889,0.3465 -2.46763,0.7636 -3.65228,1.2473 l -2.66907,-4.8322 c 1.74876,-0.7506 3.56584,-1.3741 5.43503,-1.8608 m -7.53652,2.8384 1.99815,5.1413 c -1.14446,0.5983 -2.24886,1.2612 -3.31095,1.9825 l -3.61435,-4.1709 c 1.55996,-1.1012 3.20637,-2.0896 4.92715,-2.9529 m -6.78162,4.3475 3.02586,4.6132 c -0.9938,0.82 -1.93743,1.6965 -2.8287,2.6255 l -4.40282,-3.3304 c 1.30273,-1.4035 2.70796,-2.7103 4.20566,-3.9083 m -5.73033,5.6558 3.91678,3.8836 c -0.80077,1.0055 -1.54321,2.0595 -2.22536,3.1539 l -4.99821,-2.3427 c 0.98691,-1.6496 2.09252,-3.2166 3.30679,-4.6948 m -4.43719,6.7208 4.63886,2.9844 c -0.57342,1.147 -1.08051,2.3321 -1.51914,3.5496 l -5.37833,-1.2498 c 0.62478,-1.8274 1.3803,-3.5922 2.25861,-5.2842 m -2.93827,7.5 5.15786,1.9543 c -0.31786,1.2359 -0.56734,2.5 -0.74034,3.7883 l -5.51886,-0.1039 c 0.1447,-1.222 0.34777,-2.4298 0.60317,-3.6154 0.14794,-0.6823 0.31397,-1.3546 0.49817,-2.0228 m -1.30596,7.9474 5.45344,0.8413 c -0.021,0.457 -0.0318,0.9201 -0.0324,1.3832 -0.001,0.8315 0.0302,1.657 0.0891,2.4726 l -5.4218,1.0454 c -0.10303,-1.1619 -0.15581,-2.3359 -0.15412,-3.5258 0.001,-0.745 0.0224,-1.4839 0.0656,-2.2167 m 5.87253,7.7339 c 0.21163,1.2809 0.49979,2.5377 0.8565,3.7644 l -5.08718,2.1493 c -0.55919,-1.8149 -0.98946,-3.6841 -1.27668,-5.6013 l 5.50736,-0.3124 m 1.84504,6.6551 c 0.47345,1.2048 1.0175,2.3713 1.62399,3.5018 l -4.52683,3.1587 c -0.92985,-1.6644 -1.74084,-3.4053 -2.42092,-5.2082 l 5.32376,-1.4523 m 3.19483,6.1235 c 0.71326,1.0742 1.48903,2.1061 2.31921,3.0859 l -3.77096,4.0296 c -1.26041,-1.4394 -2.41602,-2.9733 -3.45269,-4.5895 l 4.90444,-2.526 m 4.39797,5.3258 c 0.9169,0.9013 1.88827,1.7484 2.90597,2.539 l -2.85175,4.7257 c -1.53474,-1.1499 -2.98061,-2.4123 -4.32575,-3.7754 l 4.27153,-3.4893 m 5.40427,4.3004 c 1.08227,0.6901 2.20688,1.3199 3.3699,1.8832 l -1.80744,5.2165 c -1.74655,-0.8099 -3.42252,-1.7465 -5.01573,-2.7999 l 3.45327,-4.2998 m 6.17908,3.0852 c 1.19738,0.4467 2.43112,0.8271 3.68912,1.1349 l -0.68027,5.4776 c -1.88803,-0.4274 -3.72153,-0.9939 -5.49246,-1.6869 l 2.48361,-4.9256 m 6.68846,1.7231 c 1.26014,0.1849 2.54262,0.3014 3.84325,0.3416 l 0.47348,5.4975 c -1.94705,-0.027 -3.85558,-0.1988 -5.72168,-0.5055 l 1.40495,-5.3336"
         style="fill:#282626;fill-opacity:1;fill-rule:nonzero;stroke:none;stroke-width:0.201348"
         id="path1060" />
      <path
         d="m 257.06841,1754.9666 -0.0579,1.1898 c 0.70277,-0.045 1.41357,-0.071 2.12835,-0.07 0.18929,3e-4 0.38054,0 0.56983,0.011 l -0.0148,10.4519 c -0.18928,0 -0.38054,-0.011 -0.56983,-0.011 -11.81725,-0.017 -21.41306,9.5518 -21.42978,21.3688 -0.0167,11.817 9.55198,21.4127 21.36923,21.4294 0.18929,3e-4 0.38055,0 0.56985,0 l -0.0148,10.4539 c -0.18929,0 -0.37859,0 -0.56984,0 -0.36449,-6e-4 -0.72487,-0.011 -1.08526,-0.022 v 0 0 l 0.10099,1.1881 c -1.30064,-0.04 -2.58311,-0.1567 -3.84325,-0.3416 l 0.30364,-1.1513 c -1.069,-0.1545 -2.12374,-0.3614 -3.1563,-0.6186 l -0.14667,1.1817 c -1.258,-0.3078 -2.49176,-0.6881 -3.68913,-1.1348 l 0.53506,-1.0623 c -1.01022,-0.3739 -1.99622,-0.7962 -2.95606,-1.2667 l -0.38817,1.127 c -1.16303,-0.5633 -2.28764,-1.1932 -3.36991,-1.8833 l 0.74423,-0.9272 c -0.90726,-0.5751 -1.7863,-1.1924 -2.62901,-1.854 l -0.61352,1.0199 c -1.0177,-0.7907 -1.98907,-1.6378 -2.90597,-2.539 l 0.92127,-0.7538 c -0.76607,-0.7481 -1.49791,-1.5344 -2.18534,-2.3568 l -0.81469,0.8707 c -0.83017,-0.9798 -1.60596,-2.0118 -2.3192,-3.086 l 1.05987,-0.5441 c -0.59679,-0.8888 -1.14716,-1.8098 -1.65122,-2.7588 l -0.9795,0.6812 c -0.60648,-1.1305 -1.15053,-2.297 -1.62399,-3.5017 l 1.14813,-0.3125 c -0.39523,-0.9912 -0.74416,-2.0045 -1.03867,-3.0417 l -1.09801,0.4635 c -0.3567,-1.2267 -0.64486,-2.4836 -0.85648,-3.7644 l 1.18805,-0.066 c -0.17972,-1.0492 -0.30709,-2.1146 -0.38002,-3.1938 l -1.17018,0.2238 c -0.0592,-0.8155 -0.0903,-1.6411 -0.0891,-2.4727 6.5e-4,-0.4631 0.0115,-0.9261 0.0324,-1.3832 l 1.17564,0.1809 c 0.0436,-1.0832 0.13795,-2.1522 0.2864,-3.205 l -1.19201,-0.021 c 0.17301,-1.2884 0.42248,-2.5525 0.74036,-3.7884 l 1.11486,0.4224 c 0.26523,-1.0445 0.58077,-2.071 0.94666,-3.0732 l -1.1614,-0.2694 c 0.43863,-1.2176 0.94571,-2.4028 1.51914,-3.5496 l 1.00387,0.6457 c 0.47652,-0.9638 0.99934,-1.9013 1.56841,-2.8065 l -1.08253,-0.5069 c 0.68214,-1.0944 1.42459,-2.1485 2.22536,-3.154 l 0.84448,0.8388 c 0.66565,-0.8427 1.37153,-1.6511 2.11764,-2.4213 l -0.9514,-0.7181 c 0.89126,-0.929 1.83488,-1.8055 2.82869,-2.6255 l 0.65293,0.9975 c 0.8225,-0.6875 1.67918,-1.3325 2.56999,-1.9333 l -0.77996,-0.9011 c 1.0621,-0.7213 2.1665,-1.3843 3.31095,-1.9826 l 0.43134,1.112 c 0.94505,-0.498 1.91819,-0.9517 2.9175,-1.355 l -0.57643,-1.0438 c 1.18465,-0.4835 2.40339,-0.9006 3.65227,-1.2471 l 0.19164,1.1741 c 1.02526,-0.2885 2.07059,-0.5266 3.136,-0.7124 l -0.34672,-1.1401 c 1.25475,-0.2258 2.53151,-0.379 3.83237,-0.4576"
         style="fill:#363637;fill-opacity:1;fill-rule:nonzero;stroke:none;stroke-width:0.201348"
         id="path1062" />
      <path
         d="m 259.14814,1749.4183 c 0.17111,4e-4 0.33827,0.02 0.50733,0.029 l 0.0614,0.7249 -0.009,5.9217 c -0.18927,0 -0.38053,-0.011 -0.56982,-0.011 -0.71477,-0 -1.42559,0.025 -2.12835,0.07 l 0.0579,-1.1899 0.26348,-5.5085 c 0.6021,-0.028 1.20817,-0.041 1.81627,-0.04 m -7.51745,0.7223 v 0 l 1.60533,5.2836 0.34671,1.1401 c -1.0654,0.1858 -2.11073,0.4238 -3.136,0.7124 l -0.19163,-1.1742 -0.88632,-5.4456 c 0.74734,-0.1943 1.50059,-0.3664 2.26191,-0.5163 m -7.69694,2.3771 v 0 l 2.66907,4.832 0.57644,1.0438 c -0.99931,0.4034 -1.97245,0.857 -2.91751,1.355 l -0.43133,-1.1121 -1.99815,-5.1411 c 0.68908,-0.3473 1.38824,-0.6726 2.10148,-0.9776 m -7.02864,3.9304 v 0 l 3.61436,4.171 0.77996,0.9011 c -0.89081,0.6007 -1.74749,1.2459 -2.56999,1.9333 l -0.65294,-0.9976 -3.02585,-4.6131 c 0.60477,-0.4824 1.22356,-0.9486 1.85446,-1.3947 m -6.06013,5.3029 v 0 l 4.40282,3.3305 0.95141,0.7181 c -0.7461,0.7702 -1.45199,1.5786 -2.11763,2.4212 l -0.84449,-0.8387 -3.91677,-3.8835 c 0.49011,-0.5973 1.00035,-1.1805 1.52466,-1.7476 m -4.83144,6.4423 v 0 l 4.99819,2.3427 1.08254,0.5069 c -0.56909,0.9053 -1.0919,1.8428 -1.56842,2.8066 l -1.00386,-0.6457 -4.63886,-2.9845 c 0.35534,-0.6861 0.73277,-1.3641 1.13041,-2.026 m -3.38903,7.3101 v 0 l 5.37833,1.25 1.16141,0.2695 c -0.36589,1.0021 -0.68143,2.0286 -0.94666,3.0731 l -1.11487,-0.4223 -5.15787,-1.9544 c 0.20439,-0.7487 0.43298,-1.4873 0.67966,-2.2159 m -1.78099,7.8541 v 0 l 5.51885,0.1039 1.19201,0.021 c -0.14846,1.0528 -0.24261,2.1219 -0.28641,3.205 l -1.17563,-0.1808 -5.45345,-0.8413 c 0.0452,-0.7772 0.11294,-1.5461 0.20463,-2.3091 m 6.47594,6.7824 c 0.0729,1.0794 0.20029,2.1446 0.38002,3.1939 l -1.18806,0.066 -5.50737,0.3123 c -0.11571,-0.7593 -0.2072,-1.5285 -0.27657,-2.3038 l 5.4218,-1.0454 1.17018,-0.2238 m 1.14646,6.5615 c 0.29451,1.0374 0.64344,2.0507 1.03866,3.0418 l -1.14812,0.3125 -5.32377,1.4522 c -0.2708,-0.7212 -0.52342,-1.4545 -0.75195,-2.1937 l 5.08717,-2.1493 1.09801,-0.4635 m 2.49403,6.1748 c 0.50406,0.9491 1.05443,1.8699 1.65122,2.7588 l -1.05987,0.5441 -4.90446,2.526 c -0.41591,-0.651 -0.81559,-1.3139 -1.19321,-1.989 l 4.52682,-3.1588 0.9795,-0.6811 m 3.72523,5.5181 c 0.68744,0.8225 1.41928,1.6088 2.18535,2.3568 l -0.92127,0.7538 -4.27154,3.4893 c -0.54281,-0.5503 -1.06959,-1.1169 -1.57818,-1.6995 l 3.77096,-4.0297 0.81468,-0.8707 m 4.78357,4.6297 c 0.84271,0.6616 1.72175,1.279 2.62901,1.8542 l -0.74423,0.9271 -3.45326,4.2999 c -0.64568,-0.4257 -1.27932,-0.8716 -1.89679,-1.3357 l 2.85175,-4.7256 0.61352,-1.0199 m 5.64286,3.5377 c 0.95983,0.4705 1.94583,0.8926 2.95606,1.2665 l -0.53506,1.0624 -2.48362,4.9255 c -0.72244,-0.283 -1.43278,-0.588 -2.13299,-0.9111 l 1.80743,-5.2164 0.38818,-1.1269 m 6.2568,2.2819 c 1.03256,0.2572 2.0873,0.4641 3.15629,0.6187 l -0.30364,1.1512 -1.40494,5.3337 c -0.76499,-0.1259 -1.52587,-0.274 -2.27465,-0.4442 l 0.68027,-5.4776 0.14667,-1.1818 m 6.59491,0.9235 c 0.36039,0.013 0.72077,0.021 1.08524,0.021 0.19126,2e-4 0.38056,0 0.56985,0 l -0.01,6.6445 c -0.19132,0 -0.37658,0.028 -0.56987,0.028 -0.16712,-3e-4 -0.33626,0 -0.50133,0 l -0.47348,-5.4974 -0.101,-1.1881"
         style="fill:#363637;fill-opacity:1;fill-rule:nonzero;stroke:none;stroke-width:0.201348"
         id="path1064" />
      <path
         d="m 259.12392,1766.5389 c 0.18929,3e-4 0.38054,0 0.56983,0.011 l -0.005,3.7328 c -0.18929,-0.011 -0.37858,-0.011 -0.56983,-0.011 -9.75745,-0.014 -17.67963,7.8859 -17.69343,17.6432 -0.0138,9.7552 7.88599,17.6794 17.64343,17.6932 0.19125,2e-4 0.38055,0 0.56985,-0.011 l -0.005,3.733 c -0.1893,0 -0.38056,0.011 -0.56985,0 -11.81725,-0.017 -21.38596,-9.6124 -21.36923,-21.4294 0.0167,-11.817 9.61253,-21.3855 21.42978,-21.3688"
         style="fill:#a3931f;fill-opacity:1;fill-rule:nonzero;stroke:none;stroke-width:0.201348"
         id="path1066" />
      <path
         d="m 259.11864,1770.2698 c 0.19125,3e-4 0.38054,0 0.56983,0.011 l -0.009,6.29 c -0.16698,-0.096 -0.36019,-0.1514 -0.56759,-0.1517 -0.6262,-9e-4 -1.13436,0.5058 -1.13525,1.1339 -8.8e-4,0.6263 0.50584,1.1364 1.13204,1.1372 0.2074,4e-4 0.40077,-0.056 0.56802,-0.1501 l -0.003,2.0698 c -0.18724,-0.016 -0.37855,-0.023 -0.56981,-0.024 -4.05919,-0.011 -7.35795,3.2817 -7.36369,7.3428 -0.005,4.0612 3.28369,7.3578 7.34288,7.3636 0.19126,2e-4 0.38259,-0.011 0.56987,-0.021 l -0.003,2.0719 c -0.16698,-0.096 -0.36223,-0.1535 -0.56963,-0.1538 -0.62823,-9e-4 -1.13632,0.5077 -1.13721,1.1339 -8.9e-4,0.6262 0.50577,1.1364 1.134,1.1372 0.2074,3e-4 0.4028,-0.056 0.57005,-0.1522 l -0.009,6.2921 c -0.18931,0.011 -0.37861,0.011 -0.56985,0.011 -9.75745,-0.014 -17.65724,-7.938 -17.64344,-17.6932 0.0138,-9.7572 7.93599,-17.6569 17.69343,-17.6431 m -6.11562,10.3909 c 0.23155,3e-4 0.46522,-0.07 0.6668,-0.2166 0.50789,-0.3656 0.62168,-1.0782 0.25392,-1.5842 -0.2231,-0.3063 -0.56917,-0.4699 -0.91954,-0.4704 -0.23154,-3e-4 -0.46521,0.07 -0.66679,0.2165 -0.50789,0.3678 -0.62162,1.0784 -0.25393,1.5862 0.22311,0.3065 0.56715,0.468 0.91954,0.4685 m -3.78264,5.1874 c 0.47917,6e-4 0.92464,-0.3028 1.08233,-0.7838 0.19414,-0.5956 -0.13315,-1.2364 -0.72685,-1.4325 -0.11674,-0.036 -0.23547,-0.055 -0.3503,-0.055 -0.47915,-6e-4 -0.9266,0.3028 -1.08232,0.7838 -0.19617,0.5957 0.13111,1.2365 0.72686,1.4307 0.11673,0.039 0.23546,0.057 0.35028,0.057 m -0.009,6.419 c 0.1168,2e-4 0.23558,-0.018 0.35242,-0.056 0.59629,-0.1924 0.92342,-0.8322 0.7309,-1.4285 -0.15428,-0.4814 -0.60087,-0.7861 -1.0801,-0.7868 -0.11475,-10e-5 -0.2336,0.018 -0.35045,0.054 -0.59622,0.1945 -0.92334,0.8343 -0.73089,1.4305 0.15638,0.4815 0.60094,0.7861 1.07812,0.7869 m 3.76599,5.198 c 0.35029,5e-4 0.69689,-0.1601 0.91876,-0.4658 0.3692,-0.5069 0.25945,-1.2178 -0.24944,-1.587 -0.20109,-0.1473 -0.4326,-0.2181 -0.66414,-0.2184 -0.35234,-5e-4 -0.69894,0.1621 -0.92081,0.4678 -0.36918,0.5069 -0.25748,1.2179 0.24945,1.587 0.20116,0.1453 0.43456,0.2161 0.66618,0.2164"
         style="fill:#98771f;fill-opacity:1;fill-rule:nonzero;stroke:none;stroke-width:0.201348"
         id="path1068" />
      <path
         d="m 259.10405,1780.5848 c 0.19126,3e-4 0.38257,0.011 0.5698,0.024 l -0.0208,14.6621 c -0.18728,0.014 -0.37862,0.021 -0.56988,0.021 -4.05919,-0.011 -7.34863,-3.3024 -7.34288,-7.3636 0.005,-4.0611 3.3045,-7.3485 7.36369,-7.3427"
         style="fill:#a3931f;fill-opacity:1;fill-rule:nonzero;stroke:none;stroke-width:0.201348"
         id="path1070" />
      <path
         d="m 259.08056,1797.1878 c 0.2074,3e-4 0.40264,0.057 0.56962,0.1539 l -0.003,1.9651 c -0.16725,0.096 -0.36265,0.1525 -0.57005,0.1521 -0.62823,-8e-4 -1.13489,-0.5109 -1.134,-1.1372 8.8e-4,-0.6261 0.50898,-1.1348 1.13721,-1.1339"
         style="fill:#a3931f;fill-opacity:1;fill-rule:nonzero;stroke:none;stroke-width:0.201348"
         id="path1072" />
      <path
         d="m 259.11198,1776.4169 c 0.2074,3e-4 0.40061,0.055 0.56759,0.1518 l -0.003,1.9691 c -0.16725,0.094 -0.36062,0.1506 -0.56802,0.1503 -0.62621,-8e-4 -1.13292,-0.511 -1.13204,-1.1372 8.9e-4,-0.6282 0.50905,-1.1349 1.13525,-1.134"
         style="fill:#a3931f;fill-opacity:1;fill-rule:nonzero;stroke:none;stroke-width:0.201348"
         id="path1074" />
      <path
         d="m 253.0042,1778.3895 c 0.35037,5e-4 0.69644,0.1641 0.91955,0.4705 0.36776,0.5058 0.25396,1.2185 -0.25393,1.5842 -0.20157,0.1467 -0.43525,0.2168 -0.6668,0.2165 -0.35239,-4e-4 -0.69643,-0.1621 -0.91954,-0.4684 -0.36769,-0.5079 -0.25396,-1.2186 0.25394,-1.5862 0.20157,-0.1468 0.43524,-0.2169 0.66678,-0.2166"
         style="fill:#a3931f;fill-opacity:1;fill-rule:nonzero;stroke:none;stroke-width:0.201348"
         id="path1076" />
      <path
         d="m 249.22557,1783.5769 c 0.11482,10e-5 0.23355,0.018 0.35029,0.055 0.5937,0.1962 0.92099,0.8369 0.72685,1.4327 -0.15768,0.481 -0.60316,0.7844 -1.08233,0.7837 -0.11482,-1e-4 -0.23355,-0.018 -0.35028,-0.057 -0.59575,-0.1941 -0.92302,-0.8348 -0.72686,-1.4305 0.15573,-0.481 0.60317,-0.7844 1.08233,-0.7838"
         style="fill:#a3931f;fill-opacity:1;fill-rule:nonzero;stroke:none;stroke-width:0.201348"
         id="path1078" />
      <path
         d="m 249.21248,1789.9959 c 0.47923,6e-4 0.92582,0.3053 1.08011,0.7867 0.19251,0.5963 -0.13462,1.2361 -0.73091,1.4285 -0.11683,0.039 -0.23562,0.056 -0.35241,0.056 -0.47719,-7e-4 -0.92174,-0.3053 -1.07813,-0.7868 -0.19245,-0.5963 0.13468,-1.2361 0.7309,-1.4306 0.11684,-0.036 0.23569,-0.054 0.35044,-0.054"
         style="fill:#a3931f;fill-opacity:1;fill-rule:nonzero;stroke:none;stroke-width:0.201348"
         id="path1080" />
      <path
         d="m 252.98044,1795.1939 c 0.23154,3e-4 0.46305,0.071 0.66414,0.2184 0.50888,0.3691 0.61863,1.0801 0.24943,1.587 -0.22187,0.3056 -0.56846,0.4663 -0.91876,0.4658 -0.23161,-4e-4 -0.46502,-0.071 -0.66617,-0.2164 -0.50693,-0.3692 -0.61864,-1.0801 -0.24945,-1.587 0.22187,-0.3057 0.56847,-0.4684 0.92081,-0.4678"
         style="fill:#a3931f;fill-opacity:1;fill-rule:nonzero;stroke:none;stroke-width:0.201348"
         id="path1082" />
      <path
         d="m 111.62068,1749.4775 -0.33194,6.8674 c -1.61898,0.096 -3.2119,0.2894 -4.77478,0.5692 l -2.00221,-6.585 c 2.31417,-0.4538 4.69052,-0.7423 7.10893,-0.8516 m -9.92668,1.494 1.10382,6.787 c -1.55705,0.4326 -3.075979,0.952 -4.552702,1.5559 l -3.327837,-6.0229 c 2.181926,-0.9352 4.44421,-1.7133 6.776719,-2.32 m -9.396027,3.5385 2.49173,6.4083 c -1.428638,0.745 -2.805033,1.5726 -4.127136,2.4728 l -4.504965,-5.1991 c 1.944969,-1.3725 3.996493,-2.6059 6.140371,-3.682 m -8.452299,5.4203 3.769201,5.7498 c -1.2377,1.0211 -2.415143,2.1147 -3.524244,3.2729 l -5.48695,-4.1494 c 1.623351,-1.7515 3.375393,-3.3819 5.241993,-4.8733 m -7.145849,7.0512 4.881953,4.8392 c -0.996447,1.253 -1.92448,2.5665 -2.772083,3.9324 l -6.231748,-2.9182 c 1.229195,-2.0562 2.609151,-4.0113 4.121878,-5.8534 m -5.530851,8.3762 5.783599,3.721 c -0.714832,1.4305 -1.347119,2.9055 -1.894964,4.425 l -6.702725,-1.5598 c 0.776389,-2.2763 1.719785,-4.4776 2.81409,-6.5862 m -3.661701,9.3474 6.42972,2.4393 c -0.396834,1.5398 -0.70711,3.1159 -0.924853,4.7223 l -6.877962,-0.1325 c 0.07543,-0.6341 0.162865,-1.2643 0.262432,-1.8903 0.278303,-1.7473 0.649203,-3.4602 1.110663,-5.1388 m -1.626823,9.91 6.794062,1.0465 c -0.02319,0.5718 -0.03554,1.1477 -0.03635,1.7255 -0.0015,1.039 0.03505,2.0658 0.108356,3.0848 l -6.757099,1.3013 c -0.128847,-1.4479 -0.193238,-2.9138 -0.191142,-4.3958 0.0013,-0.9282 0.02907,-1.8483 0.08245,-2.7623 m 7.31756,9.6408 c 0.265501,1.597 0.623692,3.162 1.068542,4.6908 l -6.340314,2.6791 c -0.697468,-2.2622 -1.233761,-4.5925 -1.592821,-6.981 l 6.864593,-0.3889 m 2.299764,8.2967 c 0.591861,1.5008 1.268292,2.9555 2.027464,4.364 l -5.643394,3.9364 c -1.160889,-2.0735 -2.172637,-4.2434 -3.019125,-6.4936 l 6.635055,-1.8068 m 3.983975,7.6326 c 0.888064,1.3382 1.85474,2.6242 2.88994,3.8458 l -4.70058,5.023 c -1.569978,-1.7942 -3.008963,-3.705 -4.302798,-5.7204 l 6.113438,-3.1484 m 5.483429,6.6381 c 1.142091,1.1232 2.352708,2.1799 3.619851,3.1663 l -3.552092,5.8904 c -1.914887,-1.4343 -3.716719,-3.0094 -5.39155,-4.707 l 5.323791,-4.3497 m 6.735668,5.3613 c 1.347827,0.8597 2.750082,1.6449 4.200823,2.3456 l -2.252209,6.5043 c -2.177212,-1.0097 -4.267589,-2.1785 -6.253049,-3.49 l 4.304435,-5.3599 m 7.702237,3.8446 c 1.49318,0.5578 3.03084,1.0332 4.60085,1.416 l -0.85132,6.8284 c -2.35097,-0.5328 -4.639363,-1.2388 -6.844927,-2.1037 l 3.095397,-6.1407 m 8.3389,2.1481 c 1.57023,0.2318 3.16872,0.375 4.79155,0.4255 l 0.58626,6.8548 c -2.42418,-0.033 -4.80388,-0.2485 -7.12888,-0.6303 l 1.75107,-6.65"
         style="fill:#282626;fill-opacity:1;fill-rule:nonzero;stroke:none;stroke-width:0.201348"
         id="path1084" />
      <path
         d="m 111.28874,1756.3449 -0.0706,1.4838 c 0.87796,-0.057 1.76193,-0.09 2.65189,-0.089 0,0 0.006,0 0.006,0 l -0.0184,13.0291 c 0,0 -0.006,0 -0.006,0 -14.732765,-0.02 -26.693742,11.9082 -26.714583,26.6386 -0.02084,14.7305 11.906334,26.6933 26.639103,26.7142 0,0 0,0 0.006,0 l -0.0184,13.0291 c 0,0 -0.006,0 -0.006,0 -0.45304,-7e-4 -0.90201,-0.012 -1.35096,-0.028 v 0 0 l 0.12676,1.48 c -1.62284,-0.05 -3.22132,-0.1937 -4.79154,-0.4255 l 0.37856,-1.4351 c -1.33269,-0.1911 -2.64712,-0.4487 -3.93332,-0.7687 l -0.1833,1.4717 c -1.57001,-0.3828 -3.10767,-0.8582 -4.600853,-1.416 l 0.668353,-1.3219 c -1.259815,-0.4669 -2.48935,-0.9941 -3.684495,-1.5797 l -0.485283,1.4026 c -1.45073,-0.7007 -2.85299,-1.4859 -4.200818,-2.3456 l 0.927814,-1.1584 c -1.130597,-0.7143 -2.226864,-1.485 -3.276734,-2.3081 l -0.766897,1.2715 c -1.267144,-0.9864 -2.47776,-2.0431 -3.61985,-3.1663 l 1.149009,-0.9386 c -0.957069,-0.9336 -1.867819,-1.9135 -2.726145,-2.9395 l -1.016353,1.0858 c -1.0352,-1.2216 -2.001876,-2.5076 -2.889941,-3.8458 l 1.319826,-0.6807 c -0.741422,-1.1064 -1.42846,-2.255 -2.056987,-3.4378 l -1.219351,0.8499 c -0.759171,-1.4085 -1.435602,-2.8632 -2.027462,-4.364 l 1.432136,-0.3906 c -0.491589,-1.235 -0.926708,-2.5 -1.295388,-3.7932 l -1.36797,0.578 c -0.444851,-1.5289 -0.803042,-3.0939 -1.068543,-4.6909 l 1.482027,-0.085 c -0.221624,-1.3071 -0.382858,-2.6342 -0.473596,-3.9813 l -1.460197,0.2818 c -0.07302,-1.019 -0.109825,-2.0458 -0.108354,-3.0848 8.17e-4,-0.5778 0.01384,-1.1537 0.03635,-1.7255 l 1.469582,0.2256 c 0.05209,-1.349 0.170908,-2.6817 0.356016,-3.9922 l -1.487971,-0.028 c 0.217743,-1.6064 0.52802,-3.1825 0.924854,-4.7222 l 1.388586,0.5254 c 0.332067,-1.3022 0.72446,-2.5802 1.181314,-3.8299 l -1.449284,-0.3363 c 0.547845,-1.5194 1.180132,-2.9944 1.894963,-4.425 l 1.249223,0.8052 c 0.595684,-1.2012 1.24768,-2.3701 1.956052,-3.5007 l -1.348152,-0.63 c 0.847602,-1.366 1.775635,-2.6795 2.772083,-3.9324 l 1.053623,1.0464 c 0.82905,-1.0519 1.710325,-2.0574 2.639962,-3.0185 l -1.184733,-0.8957 c 1.109102,-1.1581 2.286543,-2.2517 3.524245,-3.2728 l 0.81373,1.2434 c 1.026066,-0.8563 2.09438,-1.6602 3.206904,-2.4097 l -0.972942,-1.1228 c 1.322103,-0.9002 2.698497,-1.7277 4.12713,-2.4727 l 0.537634,1.386 c 1.178812,-0.6205 2.391714,-1.1846 3.636758,-1.6862 l -0.718966,-1.3038 c 1.476723,-0.6039 2.995641,-1.1232 4.552701,-1.5559 l 0.23957,1.4661 c 1.27706,-0.3606 2.58223,-0.6568 3.90746,-0.8905 l -0.4309,-1.42 c 1.56288,-0.2797 3.15581,-0.4727 4.77479,-0.5691"
         style="fill:#363637;fill-opacity:1;fill-rule:nonzero;stroke:none;stroke-width:0.201348"
         id="path1086" />
      <path
         d="m 113.8839,1749.4283 h 0.006 l -0.0118,8.3116 c 0,0 -0.006,0 -0.006,0 -0.88996,0 -1.77393,0.032 -2.6519,0.089 l 0.0705,-1.4838 0.33194,-6.8674 c 0.75104,-0.033 1.50416,-0.05 2.26322,-0.049 m -9.37215,0.9008 2.00221,6.5849 0.4309,1.4201 c -1.32523,0.2337 -2.63041,0.5298 -3.90747,0.8904 l -0.23957,-1.466 -1.10382,-6.787 c 0.92854,-0.2403 1.86716,-0.4544 2.81775,-0.6424 m -9.594469,2.9624 3.327837,6.0229 0.718966,1.3037 c -1.245033,0.5017 -2.457946,1.0658 -3.636758,1.6862 l -0.537623,-1.386 -2.49173,-6.4083 c 0.858353,-0.4317 1.732816,-0.8392 2.619308,-1.2185 m -8.759679,4.9005 4.504965,5.1991 0.972943,1.1228 c -1.112525,0.7495 -2.180838,1.5534 -3.206905,2.4097 l -0.81373,-1.2435 -3.769201,-5.7498 c 0.751911,-0.6029 1.521898,-1.1817 2.311928,-1.7383 m -7.553922,6.6115 5.486951,4.1495 1.184732,0.8957 c -0.929636,0.9611 -1.810911,1.9666 -2.639961,3.0185 l -1.053624,-1.0465 -4.881953,-4.8393 c 0.613212,-0.744 1.248444,-1.472 1.903855,-2.1779 m -6.025734,8.0314 6.231749,2.9182 1.348152,0.6301 c -0.708371,1.1306 -1.360368,2.2994 -1.956051,3.5007 l -1.249223,-0.8052 -5.7836,-3.721 c 0.444222,-0.8551 0.914538,-1.6981 1.408973,-2.5228 m -4.223062,9.1088 6.702725,1.56 1.449284,0.3363 c -0.456853,1.2497 -0.849247,2.5276 -1.181313,3.8299 l -1.388587,-0.5255 -6.42972,-2.4393 c 0.255041,-0.9319 0.538209,-1.8516 0.847611,-2.7614 m -2.220707,9.7905 v 0 l 6.877963,0.1325 1.487971,0.028 c -0.185109,1.3105 -0.303784,2.6433 -0.356016,3.9923 l -1.469583,-0.2256 -6.794062,-1.0465 c 0.05563,-0.9684 0.13966,-1.9288 0.253727,-2.8809 m 8.072262,8.4559 c 0.09073,1.3471 0.251973,2.6742 0.473596,3.9812 l -1.482025,0.085 -6.864594,0.389 c -0.141626,-0.9486 -0.257059,-1.9071 -0.34427,-2.8718 l 6.757098,-1.3011 1.460195,-0.2818 m 1.428083,8.1787 c 0.368681,1.2931 0.803799,2.5582 1.295388,3.7932 l -1.432136,0.3906 -6.635055,1.8067 c -0.339059,-0.8985 -0.651851,-1.811 -0.936483,-2.7336 l 6.340316,-2.679 1.36797,-0.5779 m 3.110066,7.6978 c 0.628526,1.1828 1.315564,2.3315 2.056987,3.4379 l -1.319827,0.6807 -6.113437,3.1484 c -0.518366,-0.8121 -1.014535,-1.6383 -1.486468,-2.4806 l 5.643394,-3.9364 1.219351,-0.85 m 4.643455,6.8786 c 0.858325,1.026 1.769074,2.0059 2.726143,2.9394 l -1.149008,0.9387 -5.323792,4.3496 c -0.677584,-0.6875 -1.335,-1.3932 -1.970277,-2.1189 l 4.700579,-5.023 1.016355,-1.0858 m 5.963882,5.7729 c 1.049871,0.8231 2.146138,1.5938 3.276733,2.3081 l -0.927814,1.1584 -4.304434,5.3598 c -0.806668,-0.5306 -1.593159,-1.0855 -2.363474,-1.6644 l 3.552093,-5.8904 0.766896,-1.2715 m 7.035021,4.4094 c 1.195145,0.5856 2.42468,1.1129 3.684494,1.5798 l -0.668351,1.3219 -3.095397,6.1407 c -0.899569,-0.3536 -1.784916,-0.7314 -2.658232,-1.1354 l 2.252203,-6.5043 0.485283,-1.4027 m 7.800304,2.846 c 1.28619,0.32 2.60062,0.5776 3.93332,0.7687 l -0.37857,1.4351 -1.75109,6.65 c -0.95619,-0.1564 -1.90231,-0.3409 -2.8383,-0.5537 l 0.85133,-6.8285 0.18331,-1.4716 m 8.21953,1.1493 c 0.44895,0.017 0.89792,0.028 1.35097,0.028 0,0 0.006,0 0.006,0 l -0.0118,8.3116 h -0.006 c -0.20943,-2e-4 -0.41879,0 -0.62821,0 l -0.58626,-6.8547 -0.12677,-1.4801"
         style="fill:#363637;fill-opacity:1;fill-rule:nonzero;stroke:none;stroke-width:0.201348"
         id="path1088" />
      <path
         d="m 113.8537,1770.769 c 0,0 0,0 0.006,0 l -0.006,4.6512 c 0,0 -0.006,-2e-4 -0.006,-2e-4 -12.16152,-0.017 -22.037619,9.8309 -22.054828,21.9942 -0.01721,12.1613 9.830988,22.0392 21.992508,22.0564 0,0 0.006,0 0.006,0 l -0.006,4.6512 c 0,0 -0.006,0 -0.006,0 -14.732761,-0.021 -26.659937,-11.9837 -26.639095,-26.7142 0.02084,-14.7304 11.981818,-26.6595 26.714585,-26.6386"
         style="fill:#a3931f;fill-opacity:1;fill-rule:nonzero;stroke:none;stroke-width:0.201348"
         id="path1090" />
      <path
         d="m 113.84509,1775.42 c 0,0 0.006,2e-4 0.006,2e-4 l -0.0108,7.6612 v 0 c -0.78321,0 -1.41634,0.6342 -1.41745,1.4154 -10e-4,0.7812 0.63024,1.4164 1.41344,1.4175 v 0 l -0.003,2.3638 c 0,0 -0.006,0 -0.006,0 -5.0599,-0.011 -9.17123,4.0925 -9.17838,9.1543 -0.007,5.0598 4.09254,9.1711 9.15245,9.1783 0,0 0.006,0 0.006,0 l -0.003,2.3658 c 0,0 -0.006,0 -0.006,0 -0.78124,0 -1.41633,0.6322 -1.41744,1.4134 -0.001,0.7813 0.6322,1.4164 1.41343,1.4175 0,0 0.006,0 0.006,0 l -0.0108,7.6632 c 0,0 -0.006,0 -0.006,0 -12.16152,-0.017 -22.009717,-9.8951 -21.992511,-22.0564 0.01721,-12.1633 9.893311,-22.0113 22.054831,-21.9942 m -7.62129,12.9541 c 0.2879,4e-4 0.57796,-0.088 0.82991,-0.2687 0.63289,-0.4581 0.77514,-1.3439 0.31695,-1.9768 -0.27733,-0.3829 -0.70791,-0.5849 -1.14489,-0.5855 -0.28994,-4e-4 -0.58,0.088 -0.83194,0.2687 -0.63289,0.4582 -0.77507,1.3439 -0.31689,1.9767 0.27733,0.3829 0.70791,0.5849 1.14686,0.5856 m -4.7147,6.4666 c 0.59595,8e-4 1.15222,-0.379 1.3484,-0.9767 0.24066,-0.7426 -0.16494,-1.5425 -0.90758,-1.7852 -0.14494,-0.046 -0.29384,-0.071 -0.43885,-0.071 -0.59601,-9e-4 -1.15228,0.3789 -1.34642,0.9766 -0.242626,0.7425 0.16296,1.5425 0.90561,1.7852 0.14487,0.048 0.29384,0.071 0.43884,0.071 m -0.0114,8.0014 c 0.145,2e-4 0.29201,-0.021 0.437,-0.067 0.74333,-0.2426 1.15323,-1.0414 0.91263,-1.7847 -0.19441,-0.5983 -0.7496,-0.9796 -1.34562,-0.9805 -0.14501,-2e-4 -0.29397,0.022 -0.43904,0.07 -0.74333,0.2405 -1.151192,1.0394 -0.91059,1.7826 0.19441,0.5983 0.74961,0.9796 1.34562,0.9804 m 4.69237,6.48 c 0.43692,6e-4 0.87011,-0.2001 1.14648,-0.5823 0.45998,-0.6315 0.32233,-1.5157 -0.31129,-1.9777 -0.24939,-0.1815 -0.54124,-0.2705 -0.82921,-0.271 -0.43894,-6e-4 -0.8701,0.2023 -1.1485,0.5824 -0.45999,0.6315 -0.32023,1.5177 0.31135,1.9777 0.25143,0.1835 0.54124,0.2705 0.83117,0.2709"
         style="fill:#98771f;fill-opacity:1;fill-rule:nonzero;stroke:none;stroke-width:0.201348"
         id="path1092" />
      <path
         d="m 113.82689,1788.2781 c 0,0 0.006,0 0.006,0 l -0.0259,18.3326 c 0,0 -0.006,0 -0.006,0 -5.05991,-0.011 -9.15962,-4.1185 -9.15245,-9.1783 0.007,-5.0618 4.11848,-9.1615 9.17838,-9.1543"
         style="fill:#a3931f;fill-opacity:1;fill-rule:nonzero;stroke:none;stroke-width:0.201348"
         id="path1094" />
      <path
         d="m 113.79761,1808.9765 c 0,0 0.006,0 0.006,0 l -0.004,2.8309 c 0,0 -0.006,0 -0.006,0 -0.78123,0 -1.41454,-0.6362 -1.41343,-1.4175 0.001,-0.7812 0.63621,-1.4146 1.41744,-1.4134"
         style="fill:#a3931f;fill-opacity:1;fill-rule:nonzero;stroke:none;stroke-width:0.201348"
         id="path1096" />
      <path
         d="m 113.84029,1783.0814 v 0 l -0.004,2.8329 v 0 c -0.7832,0 -1.41454,-0.6363 -1.41343,-1.4175 0.001,-0.7812 0.63425,-1.4166 1.41745,-1.4154"
         style="fill:#a3931f;fill-opacity:1;fill-rule:nonzero;stroke:none;stroke-width:0.201348"
         id="path1098" />
      <path
         d="m 106.22576,1785.5431 c 0.43699,6e-4 0.86757,0.2026 1.1449,0.5855 0.45818,0.6329 0.31593,1.5187 -0.31695,1.9768 -0.25195,0.1808 -0.54201,0.2691 -0.82992,0.2687 -0.43894,-7e-4 -0.86952,-0.2027 -1.14685,-0.5856 -0.45819,-0.6328 -0.316,-1.5185 0.31689,-1.9767 0.25194,-0.1809 0.542,-0.2691 0.83193,-0.2687"
         style="fill:#a3931f;fill-opacity:1;fill-rule:nonzero;stroke:none;stroke-width:0.201348"
         id="path1100" />
      <path
         d="m 101.51107,1792.0078 c 0.14501,2e-4 0.29391,0.025 0.43885,0.071 0.74264,0.2427 1.14824,1.0427 0.90758,1.7853 -0.19618,0.5977 -0.75245,0.9775 -1.3484,0.9766 -0.145,-2e-4 -0.29397,-0.022 -0.43884,-0.071 -0.74265,-0.2427 -1.148237,-1.0427 -0.90561,-1.7852 0.19414,-0.5977 0.75041,-0.9775 1.34642,-0.9766"
         style="fill:#a3931f;fill-opacity:1;fill-rule:nonzero;stroke:none;stroke-width:0.201348"
         id="path1102" />
      <path
         d="m 101.49975,1800.0092 c 0.59603,9e-4 1.15121,0.3822 1.34562,0.9804 0.2406,0.7434 -0.16929,1.5422 -0.91262,1.7847 -0.14499,0.046 -0.292,0.067 -0.437,0.067 -0.59602,-8e-4 -1.15122,-0.3821 -1.34562,-0.9804 -0.240606,-0.7434 0.16725,-1.5421 0.91059,-1.7827 0.14506,-0.048 0.29403,-0.07 0.43903,-0.07"
         style="fill:#a3931f;fill-opacity:1;fill-rule:nonzero;stroke:none;stroke-width:0.201348"
         id="path1104" />
      <path
         d="m 106.1941,1806.4911 c 0.28797,5e-4 0.57982,0.089 0.82921,0.271 0.63362,0.462 0.77126,1.3462 0.31129,1.9777 -0.27638,0.3822 -0.70956,0.5829 -1.14648,0.5823 -0.28993,-4e-4 -0.57975,-0.088 -0.83118,-0.2709 -0.63158,-0.46 -0.77132,-1.3462 -0.31135,-1.9777 0.27841,-0.3803 0.70956,-0.583 1.14851,-0.5824"
         style="fill:#a3931f;fill-opacity:1;fill-rule:nonzero;stroke:none;stroke-width:0.201348"
         id="path1106" />
      <path
         style="font-weight:bold;font-size:57.648px;font-family:Calibri;-inkscape-font-specification:'Calibri, Bold';fill:#ffffff;stroke-width:0.508658"
         d="m 88.481947,-1714.9034 q 0.337781,1.0133 0.422227,1.6044 0.08445,0.5911 -0.225188,0.9008 -0.309633,0.2815 -1.097789,0.3377 -0.788156,0.084 -2.167429,0.084 -1.435571,0 -2.251875,-0.056 -0.788157,-0.028 -1.210383,-0.1407 -0.422227,-0.1408 -0.591117,-0.366 -0.168891,-0.2252 -0.281485,-0.5911 l -2.448914,-7.3186 h -13.68014 l -2.308172,7.1216 q -0.112594,0.394 -0.309633,0.6755 -0.16889,0.2534 -0.591117,0.4223 -0.394078,0.1407 -1.154086,0.197 -0.731859,0.056 -1.942242,0.056 -1.294828,0 -2.026687,-0.084 -0.73186,-0.084 -1.013344,-0.394 -0.281485,-0.3378 -0.197039,-0.9289 0.08445,-0.5911 0.422226,-1.5763 l 11.231227,-32.3144 q 0.16889,-0.4786 0.394078,-0.7601 0.225187,-0.3096 0.703711,-0.4503 0.506672,-0.1689 1.379273,-0.1971 0.872602,-0.056 2.308172,-0.056 1.660758,0 2.645953,0.056 0.985195,0.028 1.520016,0.1971 0.562968,0.1407 0.788156,0.4503 0.253336,0.3097 0.422226,0.8445 z m -16.720171,-26.7129 h -0.02815 l -5.151164,15.4816 H 76.91294 Z m 44.024154,5.1512 q 0,1.3511 -0.30963,1.9985 -0.30964,0.6474 -0.76001,0.6474 h -2.95559 q 0.61927,0.6756 0.8726,1.5482 0.28149,0.8444 0.28149,1.7733 0,2.1956 -0.73186,3.9127 -0.73186,1.6889 -2.11113,2.8711 -1.35113,1.1541 -3.29337,1.7733 -1.91409,0.5912 -4.27856,0.5912 -1.21039,0 -2.30817,-0.2815 -1.097793,-0.3097 -1.68891,-0.7037 -0.337782,0.3659 -0.619266,0.8726 -0.253336,0.5066 -0.253336,1.1259 0,0.8163 0.703711,1.3511 0.731859,0.5067 2.026691,0.563 l 6.10821,0.2252 q 2.13928,0.084 3.80004,0.6193 1.6889,0.5066 2.81484,1.4637 1.15409,0.9289 1.7452,2.2518 0.61927,1.323 0.61927,3.0119 0,1.8578 -0.81631,3.4904 -0.8163,1.6608 -2.44891,2.8712 -1.63261,1.2104 -4.10967,1.9141 -2.44892,0.7037 -5.74228,0.7037 -3.208925,0 -5.488948,-0.5067 -2.251875,-0.5067 -3.715594,-1.4074 -1.43557,-0.9008 -2.111133,-2.1674 -0.647414,-1.2386 -0.647414,-2.7304 0,-0.9289 0.225188,-1.7734 0.253336,-0.8444 0.703711,-1.6326 0.478523,-0.76 1.154086,-1.4637 0.675562,-0.7037 1.548164,-1.3511 -1.210383,-0.6475 -1.885946,-1.7452 -0.647414,-1.126 -0.647414,-2.449 0,-1.6607 0.760008,-3.0118 0.760008,-1.3793 1.970391,-2.4771 -0.985196,-0.9852 -1.576313,-2.3645 -0.591117,-1.3792 -0.591117,-3.4341 0,-2.1956 0.760008,-3.9126 0.788156,-1.7452 2.167429,-2.9275 1.379274,-1.2103 3.293368,-1.8296 1.914096,-0.6474 4.222266,-0.6474 1.18223,0 2.25187,0.1407 1.09779,0.1408 2.02669,0.3941 h 7.96601 q 0.47852,0 0.76001,0.6193 0.30963,0.6192 0.30963,2.083 z m -9.09195,5.9393 q 0,-2.0267 -1.12593,-3.1527 -1.12594,-1.1259 -3.18078,-1.1259 -1.04149,0 -1.82964,0.3659 -0.788161,0.3378 -1.322981,0.9571 -0.506672,0.5911 -0.760008,1.4074 -0.253336,0.7882 -0.253336,1.6608 0,1.9141 1.125938,3.04 1.125937,1.0978 3.124477,1.0978 1.06964,0 1.8578,-0.3378 0.78815,-0.3378 1.29482,-0.9289 0.53482,-0.5911 0.78816,-1.3511 0.28148,-0.7882 0.28148,-1.6326 z m 1.66076,20.0417 q 0,-1.2667 -1.01334,-1.9423 -1.01335,-0.6755 -2.7867,-0.7318 l -5.038567,-0.1408 q -0.731859,0.5348 -1.182234,1.0415 -0.422227,0.4785 -0.703711,0.9289 -0.253336,0.4504 -0.337781,0.8726 -0.08445,0.4222 -0.08445,0.8726 0,1.4074 1.407422,2.1393 1.435567,0.7319 4.025227,0.7319 1.60446,0 2.70225,-0.3378 1.09779,-0.3097 1.77335,-0.8445 0.67556,-0.5348 0.95705,-1.2104 0.28148,-0.6474 0.28148,-1.3792 z m 28.26104,-25.3899 q 0,1.0133 -0.0563,1.6607 -0.0563,0.6474 -0.16889,1.0134 -0.1126,0.3659 -0.30964,0.5066 -0.16889,0.1408 -0.45037,0.1408 -0.22519,0 -0.50667,-0.084 -0.28149,-0.1126 -0.64742,-0.2251 -0.33778,-0.1126 -0.76,-0.1971 -0.42223,-0.1126 -0.9289,-0.1126 -0.59112,0 -1.18224,0.2534 -0.59111,0.2251 -1.23853,0.7318 -0.61926,0.5067 -1.32297,1.3511 -0.67557,0.8445 -1.46372,2.083 v 15.6506 q 0,0.2814 -0.16889,0.5066 -0.16889,0.1971 -0.59112,0.3378 -0.39408,0.1408 -1.06964,0.197 -0.67556,0.084 -1.71706,0.084 -1.04149,0 -1.71705,-0.084 -0.67556,-0.056 -1.09779,-0.197 -0.39408,-0.1407 -0.56297,-0.3378 -0.16889,-0.2252 -0.16889,-0.5066 v -25.1085 q 0,-0.2814 0.14074,-0.4785 0.14075,-0.2252 0.50667,-0.3659 0.36593,-0.1407 0.9289,-0.197 0.59112,-0.084 1.46372,-0.084 0.90075,0 1.49187,0.084 0.59112,0.056 0.90075,0.197 0.33778,0.1407 0.47852,0.3659 0.14074,0.1971 0.14074,0.4785 v 3.1245 q 0.9852,-1.4074 1.8578,-2.3081 0.8726,-0.9289 1.66076,-1.4638 0.78816,-0.5348 1.57631,-0.7318 0.78816,-0.2252 1.57631,-0.2252 0.36593,0 0.78816,0.056 0.42223,0.028 0.8726,0.1407 0.45038,0.084 0.78816,0.2252 0.33778,0.1126 0.47852,0.2534 0.16889,0.1407 0.22519,0.3096 0.0844,0.1689 0.14074,0.4785 0.0563,0.2815 0.0845,0.8726 0.0282,0.5911 0.0282,1.6045 z m 29.04918,9.9645 q 0,3.2089 -0.84446,5.8549 -0.84445,2.6459 -2.5615,4.56 -1.71706,1.9141 -4.30672,2.9556 -2.58965,1.0415 -6.05191,1.0415 -3.34966,0 -5.82673,-0.9289 -2.47706,-0.9289 -4.10967,-2.7022 -1.63261,-1.7734 -2.42076,-4.363 -0.78816,-2.5897 -0.78816,-5.9112 0,-3.2089 0.84445,-5.8549 0.87261,-2.6741 2.58966,-4.56 1.71705,-1.9141 4.27856,-2.9556 2.58966,-1.0415 6.05192,-1.0415 3.37781,0 5.85487,0.9289 2.47706,0.9007 4.08152,2.6741 1.63261,1.7733 2.42077,4.363 0.78816,2.5897 0.78816,5.9393 z m -7.29045,0.2815 q 0,-1.8578 -0.30963,-3.406 -0.28149,-1.5763 -0.9852,-2.7304 -0.70371,-1.154 -1.88594,-1.8015 -1.15409,-0.6474 -2.92744,-0.6474 -1.57631,0 -2.75855,0.5911 -1.18223,0.563 -1.94224,1.689 -0.76001,1.0977 -1.15408,2.6741 -0.36593,1.5481 -0.36593,3.5467 0,1.8578 0.30963,3.4341 0.30963,1.5481 0.98519,2.7022 0.70371,1.1541 1.88595,1.8015 1.18223,0.6193 2.92744,0.6193 1.60446,0 2.78669,-0.563 1.18224,-0.5911 1.94224,-1.6889 0.76001,-1.0978 1.12594,-2.6459 0.36593,-1.5764 0.36593,-3.5749 z m 38.50707,7.966 q 0,0.7037 -0.0563,1.2104 -0.0281,0.4785 -0.11259,0.8444 -0.0845,0.3378 -0.22519,0.5912 -0.14074,0.2533 -0.45038,0.5911 -0.30963,0.3096 -1.21038,0.8163 -0.8726,0.5067 -2.16743,0.9852 -1.26668,0.4504 -2.92744,0.76 -1.63261,0.3096 -3.5467,0.3096 -3.74374,0 -6.75563,-1.1541 -3.01188,-1.1541 -5.12301,-3.4341 -2.11113,-2.3081 -3.23707,-5.7423 -1.12594,-3.4341 -1.12594,-7.9941 0,-4.6445 1.23853,-8.2475 1.23853,-3.603 3.46226,-6.0519 2.22373,-2.4489 5.32006,-3.7156 3.12447,-1.2667 6.86821,-1.2667 1.52002,0 2.92744,0.2533 1.40742,0.2534 2.58966,0.6756 1.21038,0.3941 2.16743,0.9289 0.95704,0.5348 1.32297,0.9289 0.39408,0.3659 0.53482,0.6193 0.14075,0.2533 0.22519,0.6474 0.0845,0.3941 0.1126,0.9289 0.0563,0.5348 0.0563,1.323 0,0.8444 -0.0563,1.4355 -0.0563,0.5911 -0.19704,0.9571 -0.14075,0.3659 -0.33779,0.5348 -0.19703,0.1689 -0.45037,0.1689 -0.42223,0 -1.06964,-0.4785 -0.64741,-0.5067 -1.68891,-1.0978 -1.01334,-0.6193 -2.44891,-1.0978 -1.40742,-0.5067 -3.37781,-0.5067 -2.16743,0 -3.88449,0.9008 -1.6889,0.8726 -2.89929,2.5333 -1.18223,1.6326 -1.8015,3.969 -0.61926,2.3363 -0.61926,5.2637 0,3.2089 0.64741,5.5734 0.67556,2.3363 1.88595,3.8563 1.23853,1.5201 2.95558,2.2801 1.74521,0.7318 3.91264,0.7318 1.97039,0 3.40596,-0.4504 1.43557,-0.4785 2.44891,-1.0414 1.04149,-0.563 1.68891,-1.0134 0.67556,-0.4504 1.04149,-0.4504 0.28148,0 0.45037,0.1126 0.16889,0.1126 0.28149,0.4504 0.11259,0.3378 0.16889,0.957 0.0563,0.5912 0.0563,1.6045 z m 30.28771,-8.2475 q 0,3.2089 -0.84445,5.8549 -0.84446,2.6459 -2.56151,4.56 -1.71706,1.9141 -4.30671,2.9556 -2.58966,1.0415 -6.05192,1.0415 -3.34966,0 -5.82672,-0.9289 -2.47706,-0.9289 -4.10967,-2.7022 -1.63261,-1.7734 -2.42077,-4.363 -0.78816,-2.5897 -0.78816,-5.9112 0,-3.2089 0.84446,-5.8549 0.8726,-2.6741 2.58965,-4.56 1.71706,-1.9141 4.27857,-2.9556 2.58965,-1.0415 6.05191,-1.0415 3.37781,0 5.85487,0.9289 2.47707,0.9007 4.08153,2.6741 1.63261,1.7733 2.42076,4.363 0.78816,2.5897 0.78816,5.9393 z m -7.29045,0.2815 q 0,-1.8578 -0.30963,-3.406 -0.28148,-1.5763 -0.98519,-2.7304 -0.70371,-1.154 -1.88595,-1.8015 -1.15408,-0.6474 -2.92744,-0.6474 -1.57631,0 -2.75854,0.5911 -1.18224,0.563 -1.94225,1.689 -0.76,1.0977 -1.15408,2.6741 -0.36593,1.5481 -0.36593,3.5467 0,1.8578 0.30963,3.4341 0.30963,1.5481 0.9852,2.7022 0.70371,1.1541 1.88594,1.8015 1.18224,0.6193 2.92744,0.6193 1.60446,0 2.7867,-0.563 1.18223,-0.5911 1.94224,-1.6889 0.76001,-1.0978 1.12593,-2.6459 0.36593,-1.5764 0.36593,-3.5749 z m 52.83463,12.5261 q 0,0.2814 -0.16889,0.5066 -0.16889,0.1971 -0.56297,0.3378 -0.39408,0.1408 -1.06964,0.197 -0.67556,0.084 -1.71705,0.084 -1.06964,0 -1.74521,-0.084 -0.67556,-0.056 -1.09779,-0.197 -0.39407,-0.1407 -0.56296,-0.3378 -0.14075,-0.2252 -0.14075,-0.5066 v -14.8906 q 0,-1.2666 -0.25333,-2.3081 -0.22519,-1.0415 -0.73186,-1.7734 -0.47852,-0.76 -1.23853,-1.1541 -0.73186,-0.4222 -1.77335,-0.4222 -1.26668,0 -2.56151,0.9852 -1.29483,0.9852 -2.81485,2.8711 v 16.6921 q 0,0.2814 -0.16889,0.5066 -0.16889,0.1971 -0.59111,0.3378 -0.39408,0.1408 -1.06964,0.197 -0.67557,0.084 -1.68891,0.084 -1.04149,0 -1.71706,-0.084 -0.67556,-0.056 -1.09778,-0.197 -0.39408,-0.1407 -0.56297,-0.3378 -0.16889,-0.2252 -0.16889,-0.5066 v -14.8906 q 0,-1.2666 -0.25334,-2.3081 -0.22519,-1.0415 -0.70371,-1.7734 -0.47852,-0.76 -1.23853,-1.1541 -0.76001,-0.4222 -1.77335,-0.4222 -1.29483,0 -2.58966,0.9852 -1.29483,0.9852 -2.78669,2.8711 v 16.6921 q 0,0.2814 -0.1689,0.5066 -0.16889,0.1971 -0.59111,0.3378 -0.39408,0.1408 -1.06964,0.197 -0.67557,0.084 -1.71706,0.084 -1.04149,0 -1.71705,-0.084 -0.67556,-0.056 -1.09779,-0.197 -0.39408,-0.1407 -0.56297,-0.3378 -0.16889,-0.2252 -0.16889,-0.5066 v -25.1085 q 0,-0.2814 0.14074,-0.4785 0.14074,-0.2252 0.50667,-0.3659 0.36593,-0.1407 0.9289,-0.197 0.59112,-0.084 1.46372,-0.084 0.90075,0 1.49187,0.084 0.59111,0.056 0.90075,0.197 0.33778,0.1407 0.47852,0.3659 0.14074,0.1971 0.14074,0.4785 v 2.8993 q 2.08299,-2.2518 4.13782,-3.3778 2.08299,-1.1259 4.33486,-1.1259 1.54817,0 2.7867,0.3378 1.23853,0.3096 2.19558,0.9289 0.98519,0.5911 1.6889,1.4355 0.70371,0.8445 1.18224,1.886 1.12593,-1.2104 2.19557,-2.083 1.09779,-0.8726 2.13929,-1.4074 1.06964,-0.563 2.11113,-0.8163 1.06964,-0.2815 2.16743,-0.2815 2.50521,0 4.22226,0.8444 1.71706,0.8445 2.75855,2.3082 1.06964,1.4356 1.52002,3.3778 0.45037,1.9423 0.45037,4.1097 z m 46.8953,0 q 0,0.2814 -0.1689,0.5066 -0.16889,0.1971 -0.56296,0.3378 -0.39408,0.1408 -1.06964,0.197 -0.67557,0.084 -1.71706,0.084 -1.06964,0 -1.7452,-0.084 -0.67556,-0.056 -1.09779,-0.197 -0.39408,-0.1407 -0.56297,-0.3378 -0.14074,-0.2252 -0.14074,-0.5066 v -14.8906 q 0,-1.2666 -0.25334,-2.3081 -0.22519,-1.0415 -0.73186,-1.7734 -0.47852,-0.76 -1.23853,-1.1541 -0.73186,-0.4222 -1.77335,-0.4222 -1.26668,0 -2.56151,0.9852 -1.29483,0.9852 -2.81484,2.8711 v 16.6921 q 0,0.2814 -0.16889,0.5066 -0.16889,0.1971 -0.59112,0.3378 -0.39408,0.1408 -1.06964,0.197 -0.67556,0.084 -1.68891,0.084 -1.04149,0 -1.71705,-0.084 -0.67556,-0.056 -1.09779,-0.197 -0.39408,-0.1407 -0.56297,-0.3378 -0.16889,-0.2252 -0.16889,-0.5066 v -14.8906 q 0,-1.2666 -0.25334,-2.3081 -0.22518,-1.0415 -0.70371,-1.7734 -0.47852,-0.76 -1.23853,-1.1541 -0.76001,-0.4222 -1.77335,-0.4222 -1.29483,0 -2.58966,0.9852 -1.29482,0.9852 -2.78669,2.8711 v 16.6921 q 0,0.2814 -0.16889,0.5066 -0.16889,0.1971 -0.59112,0.3378 -0.39408,0.1408 -1.06964,0.197 -0.67556,0.084 -1.71705,0.084 -1.0415,0 -1.71706,-0.084 -0.67556,-0.056 -1.09779,-0.197 -0.39408,-0.1407 -0.56297,-0.3378 -0.16889,-0.2252 -0.16889,-0.5066 v -25.1085 q 0,-0.2814 0.14075,-0.4785 0.14074,-0.2252 0.50667,-0.3659 0.36593,-0.1407 0.9289,-0.197 0.59111,-0.084 1.46371,-0.084 0.90075,0 1.49187,0.084 0.59112,0.056 0.90075,0.197 0.33778,0.1407 0.47853,0.3659 0.14074,0.1971 0.14074,0.4785 v 2.8993 q 2.08298,-2.2518 4.13782,-3.3778 2.08298,-1.1259 4.33486,-1.1259 1.54816,0 2.78669,0.3378 1.23853,0.3096 2.19558,0.9289 0.9852,0.5911 1.68891,1.4355 0.70371,0.8445 1.18223,1.886 1.12594,-1.2104 2.19558,-2.083 1.09779,-0.8726 2.13928,-1.4074 1.06964,-0.563 2.11113,-0.8163 1.06964,-0.2815 2.16743,-0.2815 2.50521,0 4.22227,0.8444 1.71705,0.8445 2.75854,2.3082 1.06965,1.4356 1.52002,3.3778 0.45038,1.9423 0.45038,4.1097 z"
         id="text7803"
         transform="scale(1.000009,-0.99999099)"
         aria-label="AgroComm" />
    </g>
  </g>
</svg>
